# Generated from the Cobbleventure Blockbench workspace model.
mtllib rocket_base_machine_3.mtl
usemtl machine_texture
s off
o left_lower_plinth
v 0.0625 0 0.125
v 0.9375 0 0.125
v 0.9375 0 0.9375
v 0.0625 0 0.9375
vt 0.25 1
vt 0.25 0.5
vt 0.5 0.5
vt 0.5 1
vn 0 -1 0
f 1/1/1 2/2/1 3/3/1
f 1/1/1 3/3/1 4/4/1
v 0.0625 0.1875 0.125
v 0.0625 0.1875 0.9375
v 0.9375 0.1875 0.9375
v 0.9375 0.1875 0.125
vt 0.25 1
vt 0.25 0.5
vt 0.5 0.5
vt 0.5 1
vn 0 1 0
f 5/5/2 6/6/2 7/7/2
f 5/5/2 7/7/2 8/8/2
v 0.0625 0 0.125
v 0.0625 0.1875 0.125
v 0.9375 0.1875 0.125
v 0.9375 0 0.125
vt 0.25 1
vt 0.25 0.5
vt 0.5 0.5
vt 0.5 1
vn 0 0 -1
f 9/9/3 10/10/3 11/11/3
f 9/9/3 11/11/3 12/12/3
v 0.0625 0 0.9375
v 0.9375 0 0.9375
v 0.9375 0.1875 0.9375
v 0.0625 0.1875 0.9375
vt 0.25 1
vt 0.25 0.5
vt 0.5 0.5
vt 0.5 1
vn 0 0 1
f 13/13/4 14/14/4 15/15/4
f 13/13/4 15/15/4 16/16/4
v 0.0625 0 0.125
v 0.0625 0 0.9375
v 0.0625 0.1875 0.9375
v 0.0625 0.1875 0.125
vt 0.25 1
vt 0.25 0.5
vt 0.5 0.5
vt 0.5 1
vn -1 0 0
f 17/17/5 18/18/5 19/19/5
f 17/17/5 19/19/5 20/20/5
v 0.9375 0 0.125
v 0.9375 0.1875 0.125
v 0.9375 0.1875 0.9375
v 0.9375 0 0.9375
vt 0.25 1
vt 0.25 0.5
vt 0.5 0.5
vt 0.5 1
vn 1 0 0
f 21/21/6 22/22/6 23/23/6
f 21/21/6 23/23/6 24/24/6
o left_lower_lower_body
v 0.125 0.1875 0.1875
v 0.875 0.1875 0.1875
v 0.875 0.1875 0.875
v 0.125 0.1875 0.875
vt 0 1
vt 0 0.5
vt 0.25 0.5
vt 0.25 1
vn 0 -1 0
f 25/25/7 26/26/7 27/27/7
f 25/25/7 27/27/7 28/28/7
v 0.125 1 0.1875
v 0.125 1 0.875
v 0.875 1 0.875
v 0.875 1 0.1875
vt 0 1
vt 0 0.5
vt 0.25 0.5
vt 0.25 1
vn 0 1 0
f 29/29/8 30/30/8 31/31/8
f 29/29/8 31/31/8 32/32/8
v 0.125 0.1875 0.1875
v 0.125 1 0.1875
v 0.875 1 0.1875
v 0.875 0.1875 0.1875
vt 0 1
vt 0 0.5
vt 0.25 0.5
vt 0.25 1
vn 0 0 -1
f 33/33/9 34/34/9 35/35/9
f 33/33/9 35/35/9 36/36/9
v 0.125 0.1875 0.875
v 0.875 0.1875 0.875
v 0.875 1 0.875
v 0.125 1 0.875
vt 0 1
vt 0 0.5
vt 0.25 0.5
vt 0.25 1
vn 0 0 1
f 37/37/10 38/38/10 39/39/10
f 37/37/10 39/39/10 40/40/10
v 0.125 0.1875 0.1875
v 0.125 0.1875 0.875
v 0.125 1 0.875
v 0.125 1 0.1875
vt 0 1
vt 0 0.5
vt 0.25 0.5
vt 0.25 1
vn -1 0 0
f 41/41/11 42/42/11 43/43/11
f 41/41/11 43/43/11 44/44/11
v 0.875 0.1875 0.1875
v 0.875 1 0.1875
v 0.875 1 0.875
v 0.875 0.1875 0.875
vt 0 1
vt 0 0.5
vt 0.25 0.5
vt 0.25 1
vn 1 0 0
f 45/45/12 46/46/12 47/47/12
f 45/45/12 47/47/12 48/48/12
o left_lower_lower_cross
v 0.0625 0.3125 0.3125
v 0.9375 0.3125 0.3125
v 0.9375 0.3125 0.75
v 0.0625 0.3125 0.75
vt 0 1
vt 0 0.5
vt 0.25 0.5
vt 0.25 1
vn 0 -1 0
f 49/49/13 50/50/13 51/51/13
f 49/49/13 51/51/13 52/52/13
v 0.0625 0.6875 0.3125
v 0.0625 0.6875 0.75
v 0.9375 0.6875 0.75
v 0.9375 0.6875 0.3125
vt 0 1
vt 0 0.5
vt 0.25 0.5
vt 0.25 1
vn 0 1 0
f 53/53/14 54/54/14 55/55/14
f 53/53/14 55/55/14 56/56/14
v 0.0625 0.3125 0.3125
v 0.0625 0.6875 0.3125
v 0.9375 0.6875 0.3125
v 0.9375 0.3125 0.3125
vt 0 1
vt 0 0.5
vt 0.25 0.5
vt 0.25 1
vn 0 0 -1
f 57/57/15 58/58/15 59/59/15
f 57/57/15 59/59/15 60/60/15
v 0.0625 0.3125 0.75
v 0.9375 0.3125 0.75
v 0.9375 0.6875 0.75
v 0.0625 0.6875 0.75
vt 0 1
vt 0 0.5
vt 0.25 0.5
vt 0.25 1
vn 0 0 1
f 61/61/16 62/62/16 63/63/16
f 61/61/16 63/63/16 64/64/16
v 0.0625 0.3125 0.3125
v 0.0625 0.3125 0.75
v 0.0625 0.6875 0.75
v 0.0625 0.6875 0.3125
vt 0 1
vt 0 0.5
vt 0.25 0.5
vt 0.25 1
vn -1 0 0
f 65/65/17 66/66/17 67/67/17
f 65/65/17 67/67/17 68/68/17
v 0.9375 0.3125 0.3125
v 0.9375 0.6875 0.3125
v 0.9375 0.6875 0.75
v 0.9375 0.3125 0.75
vt 0 1
vt 0 0.5
vt 0.25 0.5
vt 0.25 1
vn 1 0 0
f 69/69/18 70/70/18 71/71/18
f 69/69/18 71/71/18 72/72/18
o left_lower_access_panel
v 0.25 0.3125 0.109375
v 0.75 0.3125 0.109375
v 0.75 0.3125 0.203125
v 0.25 0.3125 0.203125
vt 0.25 1
vt 0.25 0.5
vt 0.5 0.5
vt 0.5 1
vn 0 -1 0
f 73/73/19 74/74/19 75/75/19
f 73/73/19 75/75/19 76/76/19
v 0.25 0.8125 0.109375
v 0.25 0.8125 0.203125
v 0.75 0.8125 0.203125
v 0.75 0.8125 0.109375
vt 0 1
vt 0 0.5
vt 0.25 0.5
vt 0.25 1
vn 0 1 0
f 77/77/20 78/78/20 79/79/20
f 77/77/20 79/79/20 80/80/20
v 0.25 0.3125 0.109375
v 0.25 0.8125 0.109375
v 0.75 0.8125 0.109375
v 0.75 0.3125 0.109375
vt 0 1
vt 0 0.5
vt 0.25 0.5
vt 0.25 1
vn 0 0 -1
f 81/81/21 82/82/21 83/83/21
f 81/81/21 83/83/21 84/84/21
v 0.25 0.3125 0.203125
v 0.75 0.3125 0.203125
v 0.75 0.8125 0.203125
v 0.25 0.8125 0.203125
vt 0 1
vt 0 0.5
vt 0.25 0.5
vt 0.25 1
vn 0 0 1
f 85/85/22 86/86/22 87/87/22
f 85/85/22 87/87/22 88/88/22
v 0.25 0.3125 0.109375
v 0.25 0.3125 0.203125
v 0.25 0.8125 0.203125
v 0.25 0.8125 0.109375
vt 0 1
vt 0 0.5
vt 0.25 0.5
vt 0.25 1
vn -1 0 0
f 89/89/23 90/90/23 91/91/23
f 89/89/23 91/91/23 92/92/23
v 0.75 0.3125 0.109375
v 0.75 0.8125 0.109375
v 0.75 0.8125 0.203125
v 0.75 0.3125 0.203125
vt 0 1
vt 0 0.5
vt 0.25 0.5
vt 0.25 1
vn 1 0 0
f 93/93/24 94/94/24 95/95/24
f 93/93/24 95/95/24 96/96/24
o left_lower_lower_connector
v 0 0.375 0.375
v 0.25 0.375 0.375
v 0.25 0.375 0.6875
v 0 0.375 0.6875
vt 0.25 1
vt 0.25 0.5
vt 0.5 0.5
vt 0.5 1
vn 0 -1 0
f 97/97/25 98/98/25 99/99/25
f 97/97/25 99/99/25 100/100/25
v 0 0.6875 0.375
v 0 0.6875 0.6875
v 0.25 0.6875 0.6875
v 0.25 0.6875 0.375
vt 0 1
vt 0 0.5
vt 0.25 0.5
vt 0.25 1
vn 0 1 0
f 101/101/26 102/102/26 103/103/26
f 101/101/26 103/103/26 104/104/26
v 0 0.375 0.375
v 0 0.6875 0.375
v 0.25 0.6875 0.375
v 0.25 0.375 0.375
vt 0.25 1
vt 0.25 0.5
vt 0.5 0.5
vt 0.5 1
vn 0 0 -1
f 105/105/27 106/106/27 107/107/27
f 105/105/27 107/107/27 108/108/27
v 0 0.375 0.6875
v 0.25 0.375 0.6875
v 0.25 0.6875 0.6875
v 0 0.6875 0.6875
vt 0.25 1
vt 0.25 0.5
vt 0.5 0.5
vt 0.5 1
vn 0 0 1
f 109/109/28 110/110/28 111/111/28
f 109/109/28 111/111/28 112/112/28
v 0 0.375 0.375
v 0 0.375 0.6875
v 0 0.6875 0.6875
v 0 0.6875 0.375
vt 0 1
vt 0 0.5
vt 0.25 0.5
vt 0.25 1
vn -1 0 0
f 113/113/29 114/114/29 115/115/29
f 113/113/29 115/115/29 116/116/29
v 0.25 0.375 0.375
v 0.25 0.6875 0.375
v 0.25 0.6875 0.6875
v 0.25 0.375 0.6875
vt 0 1
vt 0 0.5
vt 0.25 0.5
vt 0.25 1
vn 1 0 0
f 117/117/30 118/118/30 119/119/30
f 117/117/30 119/119/30 120/120/30
o right_lower_plinth
v -1 0 0.125
v -0.0625 0 0.125
v -0.0625 0 1
v -1 0 1
vt 0.25 1
vt 0.25 0.5
vt 0.5 0.5
vt 0.5 1
vn 0 -1 0
f 121/121/31 122/122/31 123/123/31
f 121/121/31 123/123/31 124/124/31
v -1 0.1875 0.125
v -1 0.1875 1
v -0.0625 0.1875 1
v -0.0625 0.1875 0.125
vt 0.25 1
vt 0.25 0.5
vt 0.5 0.5
vt 0.5 1
vn 0 1 0
f 125/125/32 126/126/32 127/127/32
f 125/125/32 127/127/32 128/128/32
v -1 0 0.125
v -1 0.1875 0.125
v -0.0625 0.1875 0.125
v -0.0625 0 0.125
vt 0.25 1
vt 0.25 0.5
vt 0.5 0.5
vt 0.5 1
vn 0 0 -1
f 129/129/33 130/130/33 131/131/33
f 129/129/33 131/131/33 132/132/33
v -1 0 1
v -0.0625 0 1
v -0.0625 0.1875 1
v -1 0.1875 1
vt 0.25 1
vt 0.25 0.5
vt 0.5 0.5
vt 0.5 1
vn 0 0 1
f 133/133/34 134/134/34 135/135/34
f 133/133/34 135/135/34 136/136/34
v -1 0 0.125
v -1 0 1
v -1 0.1875 1
v -1 0.1875 0.125
vt 0.25 1
vt 0.25 0.5
vt 0.5 0.5
vt 0.5 1
vn -1 0 0
f 137/137/35 138/138/35 139/139/35
f 137/137/35 139/139/35 140/140/35
v -0.0625 0 0.125
v -0.0625 0.1875 0.125
v -0.0625 0.1875 1
v -0.0625 0 1
vt 0.25 1
vt 0.25 0.5
vt 0.5 0.5
vt 0.5 1
vn 1 0 0
f 141/141/36 142/142/36 143/143/36
f 141/141/36 143/143/36 144/144/36
o right_lower_lower_cabinet
v -0.9375 0.1875 0.1875
v -0.125 0.1875 0.1875
v -0.125 0.1875 0.9375
v -0.9375 0.1875 0.9375
vt 0 1
vt 0 0.5
vt 0.25 0.5
vt 0.25 1
vn 0 -1 0
f 145/145/37 146/146/37 147/147/37
f 145/145/37 147/147/37 148/148/37
v -0.9375 1 0.1875
v -0.9375 1 0.9375
v -0.125 1 0.9375
v -0.125 1 0.1875
vt 0 1
vt 0 0.5
vt 0.25 0.5
vt 0.25 1
vn 0 1 0
f 149/149/38 150/150/38 151/151/38
f 149/149/38 151/151/38 152/152/38
v -0.9375 0.1875 0.1875
v -0.9375 1 0.1875
v -0.125 1 0.1875
v -0.125 0.1875 0.1875
vt 0 1
vt 0 0.5
vt 0.25 0.5
vt 0.25 1
vn 0 0 -1
f 153/153/39 154/154/39 155/155/39
f 153/153/39 155/155/39 156/156/39
v -0.9375 0.1875 0.9375
v -0.125 0.1875 0.9375
v -0.125 1 0.9375
v -0.9375 1 0.9375
vt 0 1
vt 0 0.5
vt 0.25 0.5
vt 0.25 1
vn 0 0 1
f 157/157/40 158/158/40 159/159/40
f 157/157/40 159/159/40 160/160/40
v -0.9375 0.1875 0.1875
v -0.9375 0.1875 0.9375
v -0.9375 1 0.9375
v -0.9375 1 0.1875
vt 0 1
vt 0 0.5
vt 0.25 0.5
vt 0.25 1
vn -1 0 0
f 161/161/41 162/162/41 163/163/41
f 161/161/41 163/163/41 164/164/41
v -0.125 0.1875 0.1875
v -0.125 1 0.1875
v -0.125 1 0.9375
v -0.125 0.1875 0.9375
vt 0 1
vt 0 0.5
vt 0.25 0.5
vt 0.25 1
vn 1 0 0
f 165/165/42 166/166/42 167/167/42
f 165/165/42 167/167/42 168/168/42
o right_lower_front_vent_frame
v -0.8125 0.3125 0.15625
v -0.3125 0.3125 0.15625
v -0.3125 0.3125 0.21875
v -0.8125 0.3125 0.21875
vt 0.25 1
vt 0.25 0.5
vt 0.5 0.5
vt 0.5 1
vn 0 -1 0
f 169/169/43 170/170/43 171/171/43
f 169/169/43 171/171/43 172/172/43
v -0.8125 0.6875 0.15625
v -0.8125 0.6875 0.21875
v -0.3125 0.6875 0.21875
v -0.3125 0.6875 0.15625
vt 0.25 1
vt 0.25 0.5
vt 0.5 0.5
vt 0.5 1
vn 0 1 0
f 173/173/44 174/174/44 175/175/44
f 173/173/44 175/175/44 176/176/44
v -0.8125 0.3125 0.15625
v -0.8125 0.6875 0.15625
v -0.3125 0.6875 0.15625
v -0.3125 0.3125 0.15625
vt 0.25 1
vt 0.25 0.5
vt 0.5 0.5
vt 0.5 1
vn 0 0 -1
f 177/177/45 178/178/45 179/179/45
f 177/177/45 179/179/45 180/180/45
v -0.8125 0.3125 0.21875
v -0.3125 0.3125 0.21875
v -0.3125 0.6875 0.21875
v -0.8125 0.6875 0.21875
vt 0.25 1
vt 0.25 0.5
vt 0.5 0.5
vt 0.5 1
vn 0 0 1
f 181/181/46 182/182/46 183/183/46
f 181/181/46 183/183/46 184/184/46
v -0.8125 0.3125 0.15625
v -0.8125 0.3125 0.21875
v -0.8125 0.6875 0.21875
v -0.8125 0.6875 0.15625
vt 0.25 1
vt 0.25 0.5
vt 0.5 0.5
vt 0.5 1
vn -1 0 0
f 185/185/47 186/186/47 187/187/47
f 185/185/47 187/187/47 188/188/47
v -0.3125 0.3125 0.15625
v -0.3125 0.6875 0.15625
v -0.3125 0.6875 0.21875
v -0.3125 0.3125 0.21875
vt 0.25 1
vt 0.25 0.5
vt 0.5 0.5
vt 0.5 1
vn 1 0 0
f 189/189/48 190/190/48 191/191/48
f 189/189/48 191/191/48 192/192/48
o right_lower_cylinder_connector
v -0.25 0.375 0.375
v 0 0.375 0.375
v 0 0.375 0.6875
v -0.25 0.375 0.6875
vt 0.25 1
vt 0.25 0.5
vt 0.5 0.5
vt 0.5 1
vn 0 -1 0
f 193/193/49 194/194/49 195/195/49
f 193/193/49 195/195/49 196/196/49
v -0.25 0.6875 0.375
v -0.25 0.6875 0.6875
v 0 0.6875 0.6875
v 0 0.6875 0.375
vt 0 1
vt 0 0.5
vt 0.25 0.5
vt 0.25 1
vn 0 1 0
f 197/197/50 198/198/50 199/199/50
f 197/197/50 199/199/50 200/200/50
v -0.25 0.375 0.375
v -0.25 0.6875 0.375
v 0 0.6875 0.375
v 0 0.375 0.375
vt 0.25 1
vt 0.25 0.5
vt 0.5 0.5
vt 0.5 1
vn 0 0 -1
f 201/201/51 202/202/51 203/203/51
f 201/201/51 203/203/51 204/204/51
v -0.25 0.375 0.6875
v 0 0.375 0.6875
v 0 0.6875 0.6875
v -0.25 0.6875 0.6875
vt 0.25 1
vt 0.25 0.5
vt 0.5 0.5
vt 0.5 1
vn 0 0 1
f 205/205/52 206/206/52 207/207/52
f 205/205/52 207/207/52 208/208/52
v -0.25 0.375 0.375
v -0.25 0.375 0.6875
v -0.25 0.6875 0.6875
v -0.25 0.6875 0.375
vt 0 1
vt 0 0.5
vt 0.25 0.5
vt 0.25 1
vn -1 0 0
f 209/209/53 210/210/53 211/211/53
f 209/209/53 211/211/53 212/212/53
v 0 0.375 0.375
v 0 0.6875 0.375
v 0 0.6875 0.6875
v 0 0.375 0.6875
vt 0 1
vt 0 0.5
vt 0.25 0.5
vt 0.25 1
vn 1 0 0
f 213/213/54 214/214/54 215/215/54
f 213/213/54 215/215/54 216/216/54
o left_middle_main_chamber
v 0.125 1 0.1875
v 0.875 1 0.1875
v 0.875 1 0.875
v 0.125 1 0.875
vt 0 1
vt 0 0.5
vt 0.25 0.5
vt 0.25 1
vn 0 -1 0
f 217/217/55 218/218/55 219/219/55
f 217/217/55 219/219/55 220/220/55
v 0.125 2 0.1875
v 0.125 2 0.875
v 0.875 2 0.875
v 0.875 2 0.1875
vt 0 1
vt 0 0.5
vt 0.25 0.5
vt 0.25 1
vn 0 1 0
f 221/221/56 222/222/56 223/223/56
f 221/221/56 223/223/56 224/224/56
v 0.125 1 0.1875
v 0.125 2 0.1875
v 0.875 2 0.1875
v 0.875 1 0.1875
vt 0 1
vt 0 0.5
vt 0.25 0.5
vt 0.25 1
vn 0 0 -1
f 225/225/57 226/226/57 227/227/57
f 225/225/57 227/227/57 228/228/57
v 0.125 1 0.875
v 0.875 1 0.875
v 0.875 2 0.875
v 0.125 2 0.875
vt 0 1
vt 0 0.5
vt 0.25 0.5
vt 0.25 1
vn 0 0 1
f 229/229/58 230/230/58 231/231/58
f 229/229/58 231/231/58 232/232/58
v 0.125 1 0.1875
v 0.125 1 0.875
v 0.125 2 0.875
v 0.125 2 0.1875
vt 0 1
vt 0 0.5
vt 0.25 0.5
vt 0.25 1
vn -1 0 0
f 233/233/59 234/234/59 235/235/59
f 233/233/59 235/235/59 236/236/59
v 0.875 1 0.1875
v 0.875 2 0.1875
v 0.875 2 0.875
v 0.875 1 0.875
vt 0 1
vt 0 0.5
vt 0.25 0.5
vt 0.25 1
vn 1 0 0
f 237/237/60 238/238/60 239/239/60
f 237/237/60 239/239/60 240/240/60
o left_middle_lower_band
v 0.0625 1.0625 0.25
v 0.9375 1.0625 0.25
v 0.9375 1.0625 0.8125
v 0.0625 1.0625 0.8125
vt 0 1
vt 0 0.5
vt 0.25 0.5
vt 0.25 1
vn 0 -1 0
f 241/241/61 242/242/61 243/243/61
f 241/241/61 243/243/61 244/244/61
v 0.0625 1.25 0.25
v 0.0625 1.25 0.8125
v 0.9375 1.25 0.8125
v 0.9375 1.25 0.25
vt 0 1
vt 0 0.5
vt 0.25 0.5
vt 0.25 1
vn 0 1 0
f 245/245/62 246/246/62 247/247/62
f 245/245/62 247/247/62 248/248/62
v 0.0625 1.0625 0.25
v 0.0625 1.25 0.25
v 0.9375 1.25 0.25
v 0.9375 1.0625 0.25
vt 0 1
vt 0 0.5
vt 0.25 0.5
vt 0.25 1
vn 0 0 -1
f 249/249/63 250/250/63 251/251/63
f 249/249/63 251/251/63 252/252/63
v 0.0625 1.0625 0.8125
v 0.9375 1.0625 0.8125
v 0.9375 1.25 0.8125
v 0.0625 1.25 0.8125
vt 0 1
vt 0 0.5
vt 0.25 0.5
vt 0.25 1
vn 0 0 1
f 253/253/64 254/254/64 255/255/64
f 253/253/64 255/255/64 256/256/64
v 0.0625 1.0625 0.25
v 0.0625 1.0625 0.8125
v 0.0625 1.25 0.8125
v 0.0625 1.25 0.25
vt 0 1
vt 0 0.5
vt 0.25 0.5
vt 0.25 1
vn -1 0 0
f 257/257/65 258/258/65 259/259/65
f 257/257/65 259/259/65 260/260/65
v 0.9375 1.0625 0.25
v 0.9375 1.25 0.25
v 0.9375 1.25 0.8125
v 0.9375 1.0625 0.8125
vt 0 1
vt 0 0.5
vt 0.25 0.5
vt 0.25 1
vn 1 0 0
f 261/261/66 262/262/66 263/263/66
f 261/261/66 263/263/66 264/264/66
o left_middle_upper_band
v 0.0625 1.75 0.25
v 0.9375 1.75 0.25
v 0.9375 1.75 0.8125
v 0.0625 1.75 0.8125
vt 0 1
vt 0 0.5
vt 0.25 0.5
vt 0.25 1
vn 0 -1 0
f 265/265/67 266/266/67 267/267/67
f 265/265/67 267/267/67 268/268/67
v 0.0625 1.9375 0.25
v 0.0625 1.9375 0.8125
v 0.9375 1.9375 0.8125
v 0.9375 1.9375 0.25
vt 0 1
vt 0 0.5
vt 0.25 0.5
vt 0.25 1
vn 0 1 0
f 269/269/68 270/270/68 271/271/68
f 269/269/68 271/271/68 272/272/68
v 0.0625 1.75 0.25
v 0.0625 1.9375 0.25
v 0.9375 1.9375 0.25
v 0.9375 1.75 0.25
vt 0 1
vt 0 0.5
vt 0.25 0.5
vt 0.25 1
vn 0 0 -1
f 273/273/69 274/274/69 275/275/69
f 273/273/69 275/275/69 276/276/69
v 0.0625 1.75 0.8125
v 0.9375 1.75 0.8125
v 0.9375 1.9375 0.8125
v 0.0625 1.9375 0.8125
vt 0 1
vt 0 0.5
vt 0.25 0.5
vt 0.25 1
vn 0 0 1
f 277/277/70 278/278/70 279/279/70
f 277/277/70 279/279/70 280/280/70
v 0.0625 1.75 0.25
v 0.0625 1.75 0.8125
v 0.0625 1.9375 0.8125
v 0.0625 1.9375 0.25
vt 0 1
vt 0 0.5
vt 0.25 0.5
vt 0.25 1
vn -1 0 0
f 281/281/71 282/282/71 283/283/71
f 281/281/71 283/283/71 284/284/71
v 0.9375 1.75 0.25
v 0.9375 1.9375 0.25
v 0.9375 1.9375 0.8125
v 0.9375 1.75 0.8125
vt 0 1
vt 0 0.5
vt 0.25 0.5
vt 0.25 1
vn 1 0 0
f 285/285/72 286/286/72 287/287/72
f 285/285/72 287/287/72 288/288/72
o left_middle_front_service_panel
v 0.25 1.25 0.140625
v 0.75 1.25 0.140625
v 0.75 1.25 0.21875
v 0.25 1.25 0.21875
vt 0.25 1
vt 0.25 0.5
vt 0.5 0.5
vt 0.5 1
vn 0 -1 0
f 289/289/73 290/290/73 291/291/73
f 289/289/73 291/291/73 292/292/73
v 0.25 1.75 0.140625
v 0.25 1.75 0.21875
v 0.75 1.75 0.21875
v 0.75 1.75 0.140625
vt 0 1
vt 0 0.5
vt 0.25 0.5
vt 0.25 1
vn 0 1 0
f 293/293/74 294/294/74 295/295/74
f 293/293/74 295/295/74 296/296/74
v 0.25 1.25 0.140625
v 0.25 1.75 0.140625
v 0.75 1.75 0.140625
v 0.75 1.25 0.140625
vt 0 1
vt 0 0.5
vt 0.25 0.5
vt 0.25 1
vn 0 0 -1
f 297/297/75 298/298/75 299/299/75
f 297/297/75 299/299/75 300/300/75
v 0.25 1.25 0.21875
v 0.75 1.25 0.21875
v 0.75 1.75 0.21875
v 0.25 1.75 0.21875
vt 0 1
vt 0 0.5
vt 0.25 0.5
vt 0.25 1
vn 0 0 1
f 301/301/76 302/302/76 303/303/76
f 301/301/76 303/303/76 304/304/76
v 0.25 1.25 0.140625
v 0.25 1.25 0.21875
v 0.25 1.75 0.21875
v 0.25 1.75 0.140625
vt 0 1
vt 0 0.5
vt 0.25 0.5
vt 0.25 1
vn -1 0 0
f 305/305/77 306/306/77 307/307/77
f 305/305/77 307/307/77 308/308/77
v 0.75 1.25 0.140625
v 0.75 1.75 0.140625
v 0.75 1.75 0.21875
v 0.75 1.25 0.21875
vt 0 1
vt 0 0.5
vt 0.25 0.5
vt 0.25 1
vn 1 0 0
f 309/309/78 310/310/78 311/311/78
f 309/309/78 311/311/78 312/312/78
o left_middle_middle_connector
v 0 1.3125 0.375
v 0.25 1.3125 0.375
v 0.25 1.3125 0.6875
v 0 1.3125 0.6875
vt 0.25 1
vt 0.25 0.5
vt 0.5 0.5
vt 0.5 1
vn 0 -1 0
f 313/313/79 314/314/79 315/315/79
f 313/313/79 315/315/79 316/316/79
v 0 1.6875 0.375
v 0 1.6875 0.6875
v 0.25 1.6875 0.6875
v 0.25 1.6875 0.375
vt 0 1
vt 0 0.5
vt 0.25 0.5
vt 0.25 1
vn 0 1 0
f 317/317/80 318/318/80 319/319/80
f 317/317/80 319/319/80 320/320/80
v 0 1.3125 0.375
v 0 1.6875 0.375
v 0.25 1.6875 0.375
v 0.25 1.3125 0.375
vt 0.25 1
vt 0.25 0.5
vt 0.5 0.5
vt 0.5 1
vn 0 0 -1
f 321/321/81 322/322/81 323/323/81
f 321/321/81 323/323/81 324/324/81
v 0 1.3125 0.6875
v 0.25 1.3125 0.6875
v 0.25 1.6875 0.6875
v 0 1.6875 0.6875
vt 0.25 1
vt 0.25 0.5
vt 0.5 0.5
vt 0.5 1
vn 0 0 1
f 325/325/82 326/326/82 327/327/82
f 325/325/82 327/327/82 328/328/82
v 0 1.3125 0.375
v 0 1.3125 0.6875
v 0 1.6875 0.6875
v 0 1.6875 0.375
vt 0 1
vt 0 0.5
vt 0.25 0.5
vt 0.25 1
vn -1 0 0
f 329/329/83 330/330/83 331/331/83
f 329/329/83 331/331/83 332/332/83
v 0.25 1.3125 0.375
v 0.25 1.6875 0.375
v 0.25 1.6875 0.6875
v 0.25 1.3125 0.6875
vt 0 1
vt 0 0.5
vt 0.25 0.5
vt 0.25 1
vn 1 0 0
f 333/333/84 334/334/84 335/335/84
f 333/333/84 335/335/84 336/336/84
o right_middle_middle_cabinet
v -0.9375 1 0.1875
v -0.125 1 0.1875
v -0.125 1 0.9375
v -0.9375 1 0.9375
vt 0 1
vt 0 0.5
vt 0.25 0.5
vt 0.25 1
vn 0 -1 0
f 337/337/85 338/338/85 339/339/85
f 337/337/85 339/339/85 340/340/85
v -0.9375 1.75 0.1875
v -0.9375 1.75 0.9375
v -0.125 1.75 0.9375
v -0.125 1.75 0.1875
vt 0 1
vt 0 0.5
vt 0.25 0.5
vt 0.25 1
vn 0 1 0
f 341/341/86 342/342/86 343/343/86
f 341/341/86 343/343/86 344/344/86
v -0.9375 1 0.1875
v -0.9375 1.75 0.1875
v -0.125 1.75 0.1875
v -0.125 1 0.1875
vt 0 1
vt 0 0.5
vt 0.25 0.5
vt 0.25 1
vn 0 0 -1
f 345/345/87 346/346/87 347/347/87
f 345/345/87 347/347/87 348/348/87
v -0.9375 1 0.9375
v -0.125 1 0.9375
v -0.125 1.75 0.9375
v -0.9375 1.75 0.9375
vt 0 1
vt 0 0.5
vt 0.25 0.5
vt 0.25 1
vn 0 0 1
f 349/349/88 350/350/88 351/351/88
f 349/349/88 351/351/88 352/352/88
v -0.9375 1 0.1875
v -0.9375 1 0.9375
v -0.9375 1.75 0.9375
v -0.9375 1.75 0.1875
vt 0 1
vt 0 0.5
vt 0.25 0.5
vt 0.25 1
vn -1 0 0
f 353/353/89 354/354/89 355/355/89
f 353/353/89 355/355/89 356/356/89
v -0.125 1 0.1875
v -0.125 1.75 0.1875
v -0.125 1.75 0.9375
v -0.125 1 0.9375
vt 0 1
vt 0 0.5
vt 0.25 0.5
vt 0.25 1
vn 1 0 0
f 357/357/90 358/358/90 359/359/90
f 357/357/90 359/359/90 360/360/90
o right_middle_control_deck
v -0.9375 1.625 0.125
v -0.125 1.625 0.125
v -0.125 1.625 0.6875
v -0.9375 1.625 0.6875
vt 0 1
vt 0 0.5
vt 0.25 0.5
vt 0.25 1
vn 0 -1 0
f 361/361/91 362/362/91 363/363/91
f 361/361/91 363/363/91 364/364/91
v -0.9375 1.875 0.125
v -0.9375 1.875 0.6875
v -0.125 1.875 0.6875
v -0.125 1.875 0.125
vt 0.5 1
vt 0.5 0.5
vt 0.75 0.5
vt 0.75 1
vn 0 1 0
f 365/365/92 366/366/92 367/367/92
f 365/365/92 367/367/92 368/368/92
v -0.9375 1.625 0.125
v -0.9375 1.875 0.125
v -0.125 1.875 0.125
v -0.125 1.625 0.125
vt 0 1
vt 0 0.5
vt 0.25 0.5
vt 0.25 1
vn 0 0 -1
f 369/369/93 370/370/93 371/371/93
f 369/369/93 371/371/93 372/372/93
v -0.9375 1.625 0.6875
v -0.125 1.625 0.6875
v -0.125 1.875 0.6875
v -0.9375 1.875 0.6875
vt 0 1
vt 0 0.5
vt 0.25 0.5
vt 0.25 1
vn 0 0 1
f 373/373/94 374/374/94 375/375/94
f 373/373/94 375/375/94 376/376/94
v -0.9375 1.625 0.125
v -0.9375 1.625 0.6875
v -0.9375 1.875 0.6875
v -0.9375 1.875 0.125
vt 0 1
vt 0 0.5
vt 0.25 0.5
vt 0.25 1
vn -1 0 0
f 377/377/95 378/378/95 379/379/95
f 377/377/95 379/379/95 380/380/95
v -0.125 1.625 0.125
v -0.125 1.875 0.125
v -0.125 1.875 0.6875
v -0.125 1.625 0.6875
vt 0 1
vt 0 0.5
vt 0.25 0.5
vt 0.25 1
vn 1 0 0
f 381/381/96 382/382/96 383/383/96
f 381/381/96 383/383/96 384/384/96
o right_middle_front_access_frame
v -0.8125 1.125 0.15625
v -0.3125 1.125 0.15625
v -0.3125 1.125 0.21875
v -0.8125 1.125 0.21875
vt 0.25 1
vt 0.25 0.5
vt 0.5 0.5
vt 0.5 1
vn 0 -1 0
f 385/385/97 386/386/97 387/387/97
f 385/385/97 387/387/97 388/388/97
v -0.8125 1.5 0.15625
v -0.8125 1.5 0.21875
v -0.3125 1.5 0.21875
v -0.3125 1.5 0.15625
vt 0.25 1
vt 0.25 0.5
vt 0.5 0.5
vt 0.5 1
vn 0 1 0
f 389/389/98 390/390/98 391/391/98
f 389/389/98 391/391/98 392/392/98
v -0.8125 1.125 0.15625
v -0.8125 1.5 0.15625
v -0.3125 1.5 0.15625
v -0.3125 1.125 0.15625
vt 0.25 1
vt 0.25 0.5
vt 0.5 0.5
vt 0.5 1
vn 0 0 -1
f 393/393/99 394/394/99 395/395/99
f 393/393/99 395/395/99 396/396/99
v -0.8125 1.125 0.21875
v -0.3125 1.125 0.21875
v -0.3125 1.5 0.21875
v -0.8125 1.5 0.21875
vt 0.25 1
vt 0.25 0.5
vt 0.5 0.5
vt 0.5 1
vn 0 0 1
f 397/397/100 398/398/100 399/399/100
f 397/397/100 399/399/100 400/400/100
v -0.8125 1.125 0.15625
v -0.8125 1.125 0.21875
v -0.8125 1.5 0.21875
v -0.8125 1.5 0.15625
vt 0.25 1
vt 0.25 0.5
vt 0.5 0.5
vt 0.5 1
vn -1 0 0
f 401/401/101 402/402/101 403/403/101
f 401/401/101 403/403/101 404/404/101
v -0.3125 1.125 0.15625
v -0.3125 1.5 0.15625
v -0.3125 1.5 0.21875
v -0.3125 1.125 0.21875
vt 0.25 1
vt 0.25 0.5
vt 0.5 0.5
vt 0.5 1
vn 1 0 0
f 405/405/102 406/406/102 407/407/102
f 405/405/102 407/407/102 408/408/102
o right_middle_cylinder_connector
v -0.25 1.25 0.375
v 0 1.25 0.375
v 0 1.25 0.6875
v -0.25 1.25 0.6875
vt 0.25 1
vt 0.25 0.5
vt 0.5 0.5
vt 0.5 1
vn 0 -1 0
f 409/409/103 410/410/103 411/411/103
f 409/409/103 411/411/103 412/412/103
v -0.25 1.625 0.375
v -0.25 1.625 0.6875
v 0 1.625 0.6875
v 0 1.625 0.375
vt 0 1
vt 0 0.5
vt 0.25 0.5
vt 0.25 1
vn 0 1 0
f 413/413/104 414/414/104 415/415/104
f 413/413/104 415/415/104 416/416/104
v -0.25 1.25 0.375
v -0.25 1.625 0.375
v 0 1.625 0.375
v 0 1.25 0.375
vt 0.25 1
vt 0.25 0.5
vt 0.5 0.5
vt 0.5 1
vn 0 0 -1
f 417/417/105 418/418/105 419/419/105
f 417/417/105 419/419/105 420/420/105
v -0.25 1.25 0.6875
v 0 1.25 0.6875
v 0 1.625 0.6875
v -0.25 1.625 0.6875
vt 0.25 1
vt 0.25 0.5
vt 0.5 0.5
vt 0.5 1
vn 0 0 1
f 421/421/106 422/422/106 423/423/106
f 421/421/106 423/423/106 424/424/106
v -0.25 1.25 0.375
v -0.25 1.25 0.6875
v -0.25 1.625 0.6875
v -0.25 1.625 0.375
vt 0 1
vt 0 0.5
vt 0.25 0.5
vt 0.25 1
vn -1 0 0
f 425/425/107 426/426/107 427/427/107
f 425/425/107 427/427/107 428/428/107
v 0 1.25 0.375
v 0 1.625 0.375
v 0 1.625 0.6875
v 0 1.25 0.6875
vt 0 1
vt 0 0.5
vt 0.25 0.5
vt 0.25 1
vn 1 0 0
f 429/429/108 430/430/108 431/431/108
f 429/429/108 431/431/108 432/432/108
o left_upper_upper_chamber
v 0.1875 2 0.25
v 0.8125 2 0.25
v 0.8125 2 0.8125
v 0.1875 2 0.8125
vt 0 1
vt 0 0.5
vt 0.25 0.5
vt 0.25 1
vn 0 -1 0
f 433/433/109 434/434/109 435/435/109
f 433/433/109 435/435/109 436/436/109
v 0.1875 2.625 0.25
v 0.1875 2.625 0.8125
v 0.8125 2.625 0.8125
v 0.8125 2.625 0.25
vt 0 1
vt 0 0.5
vt 0.25 0.5
vt 0.25 1
vn 0 1 0
f 437/437/110 438/438/110 439/439/110
f 437/437/110 439/439/110 440/440/110
v 0.1875 2 0.25
v 0.1875 2.625 0.25
v 0.8125 2.625 0.25
v 0.8125 2 0.25
vt 0 1
vt 0 0.5
vt 0.25 0.5
vt 0.25 1
vn 0 0 -1
f 441/441/111 442/442/111 443/443/111
f 441/441/111 443/443/111 444/444/111
v 0.1875 2 0.8125
v 0.8125 2 0.8125
v 0.8125 2.625 0.8125
v 0.1875 2.625 0.8125
vt 0 1
vt 0 0.5
vt 0.25 0.5
vt 0.25 1
vn 0 0 1
f 445/445/112 446/446/112 447/447/112
f 445/445/112 447/447/112 448/448/112
v 0.1875 2 0.25
v 0.1875 2 0.8125
v 0.1875 2.625 0.8125
v 0.1875 2.625 0.25
vt 0 1
vt 0 0.5
vt 0.25 0.5
vt 0.25 1
vn -1 0 0
f 449/449/113 450/450/113 451/451/113
f 449/449/113 451/451/113 452/452/113
v 0.8125 2 0.25
v 0.8125 2.625 0.25
v 0.8125 2.625 0.8125
v 0.8125 2 0.8125
vt 0 1
vt 0 0.5
vt 0.25 0.5
vt 0.25 1
vn 1 0 0
f 453/453/114 454/454/114 455/455/114
f 453/453/114 455/455/114 456/456/114
o left_upper_neck
v 0.25 2.625 0.3125
v 0.75 2.625 0.3125
v 0.75 2.625 0.75
v 0.25 2.625 0.75
vt 0 1
vt 0 0.5
vt 0.25 0.5
vt 0.25 1
vn 0 -1 0
f 457/457/115 458/458/115 459/459/115
f 457/457/115 459/459/115 460/460/115
v 0.25 2.75 0.3125
v 0.25 2.75 0.75
v 0.75 2.75 0.75
v 0.75 2.75 0.3125
vt 0 1
vt 0 0.5
vt 0.25 0.5
vt 0.25 1
vn 0 1 0
f 461/461/116 462/462/116 463/463/116
f 461/461/116 463/463/116 464/464/116
v 0.25 2.625 0.3125
v 0.25 2.75 0.3125
v 0.75 2.75 0.3125
v 0.75 2.625 0.3125
vt 0 1
vt 0 0.5
vt 0.25 0.5
vt 0.25 1
vn 0 0 -1
f 465/465/117 466/466/117 467/467/117
f 465/465/117 467/467/117 468/468/117
v 0.25 2.625 0.75
v 0.75 2.625 0.75
v 0.75 2.75 0.75
v 0.25 2.75 0.75
vt 0 1
vt 0 0.5
vt 0.25 0.5
vt 0.25 1
vn 0 0 1
f 469/469/118 470/470/118 471/471/118
f 469/469/118 471/471/118 472/472/118
v 0.25 2.625 0.3125
v 0.25 2.625 0.75
v 0.25 2.75 0.75
v 0.25 2.75 0.3125
vt 0 1
vt 0 0.5
vt 0.25 0.5
vt 0.25 1
vn -1 0 0
f 473/473/119 474/474/119 475/475/119
f 473/473/119 475/475/119 476/476/119
v 0.75 2.625 0.3125
v 0.75 2.75 0.3125
v 0.75 2.75 0.75
v 0.75 2.625 0.75
vt 0 1
vt 0 0.5
vt 0.25 0.5
vt 0.25 1
vn 1 0 0
f 477/477/120 478/478/120 479/479/120
f 477/477/120 479/479/120 480/480/120
o left_upper_lamp_base
v 0.28125 2.75 0.34375
v 0.71875 2.75 0.34375
v 0.71875 2.75 0.71875
v 0.28125 2.75 0.71875
vt 0.25 1
vt 0.25 0.5
vt 0.5 0.5
vt 0.5 1
vn 0 -1 0
f 481/481/121 482/482/121 483/483/121
f 481/481/121 483/483/121 484/484/121
v 0.28125 2.875 0.34375
v 0.28125 2.875 0.71875
v 0.71875 2.875 0.71875
v 0.71875 2.875 0.34375
vt 0.25 1
vt 0.25 0.5
vt 0.5 0.5
vt 0.5 1
vn 0 1 0
f 485/485/122 486/486/122 487/487/122
f 485/485/122 487/487/122 488/488/122
v 0.28125 2.75 0.34375
v 0.28125 2.875 0.34375
v 0.71875 2.875 0.34375
v 0.71875 2.75 0.34375
vt 0.25 1
vt 0.25 0.5
vt 0.5 0.5
vt 0.5 1
vn 0 0 -1
f 489/489/123 490/490/123 491/491/123
f 489/489/123 491/491/123 492/492/123
v 0.28125 2.75 0.71875
v 0.71875 2.75 0.71875
v 0.71875 2.875 0.71875
v 0.28125 2.875 0.71875
vt 0.25 1
vt 0.25 0.5
vt 0.5 0.5
vt 0.5 1
vn 0 0 1
f 493/493/124 494/494/124 495/495/124
f 493/493/124 495/495/124 496/496/124
v 0.28125 2.75 0.34375
v 0.28125 2.75 0.71875
v 0.28125 2.875 0.71875
v 0.28125 2.875 0.34375
vt 0.25 1
vt 0.25 0.5
vt 0.5 0.5
vt 0.5 1
vn -1 0 0
f 497/497/125 498/498/125 499/499/125
f 497/497/125 499/499/125 500/500/125
v 0.71875 2.75 0.34375
v 0.71875 2.875 0.34375
v 0.71875 2.875 0.71875
v 0.71875 2.75 0.71875
vt 0.25 1
vt 0.25 0.5
vt 0.5 0.5
vt 0.5 1
vn 1 0 0
f 501/501/126 502/502/126 503/503/126
f 501/501/126 503/503/126 504/504/126
o left_upper_red_status_cap
v 0.34375 2.875 0.40625
v 0.65625 2.875 0.40625
v 0.65625 2.875 0.65625
v 0.34375 2.875 0.65625
vt 0.75 1
vt 0.75 0.5
vt 1 0.5
vt 1 1
vn 0 -1 0
f 505/505/127 506/506/127 507/507/127
f 505/505/127 507/507/127 508/508/127
v 0.34375 3 0.40625
v 0.34375 3 0.65625
v 0.65625 3 0.65625
v 0.65625 3 0.40625
vt 0.75 1
vt 0.75 0.5
vt 1 0.5
vt 1 1
vn 0 1 0
f 509/509/128 510/510/128 511/511/128
f 509/509/128 511/511/128 512/512/128
v 0.34375 2.875 0.40625
v 0.34375 3 0.40625
v 0.65625 3 0.40625
v 0.65625 2.875 0.40625
vt 0.75 1
vt 0.75 0.5
vt 1 0.5
vt 1 1
vn 0 0 -1
f 513/513/129 514/514/129 515/515/129
f 513/513/129 515/515/129 516/516/129
v 0.34375 2.875 0.65625
v 0.65625 2.875 0.65625
v 0.65625 3 0.65625
v 0.34375 3 0.65625
vt 0.75 1
vt 0.75 0.5
vt 1 0.5
vt 1 1
vn 0 0 1
f 517/517/130 518/518/130 519/519/130
f 517/517/130 519/519/130 520/520/130
v 0.34375 2.875 0.40625
v 0.34375 2.875 0.65625
v 0.34375 3 0.65625
v 0.34375 3 0.40625
vt 0.75 1
vt 0.75 0.5
vt 1 0.5
vt 1 1
vn -1 0 0
f 521/521/131 522/522/131 523/523/131
f 521/521/131 523/523/131 524/524/131
v 0.65625 2.875 0.40625
v 0.65625 3 0.40625
v 0.65625 3 0.65625
v 0.65625 2.875 0.65625
vt 0.75 1
vt 0.75 0.5
vt 1 0.5
vt 1 1
vn 1 0 0
f 525/525/132 526/526/132 527/527/132
f 525/525/132 527/527/132 528/528/132
o right_upper_display_housing
v -0.9375 2 0.5
v -0.125 2 0.5
v -0.125 2 1
v -0.9375 2 1
vt 0 1
vt 0 0.5
vt 0.25 0.5
vt 0.25 1
vn 0 -1 0
f 529/529/133 530/530/133 531/531/133
f 529/529/133 531/531/133 532/532/133
v -0.9375 2.8125 0.5
v -0.9375 2.8125 1
v -0.125 2.8125 1
v -0.125 2.8125 0.5
vt 0 1
vt 0 0.5
vt 0.25 0.5
vt 0.25 1
vn 0 1 0
f 533/533/134 534/534/134 535/535/134
f 533/533/134 535/535/134 536/536/134
v -0.9375 2 0.5
v -0.9375 2.8125 0.5
v -0.125 2.8125 0.5
v -0.125 2 0.5
vt 0.25 1
vt 0.25 0.5
vt 0.5 0.5
vt 0.5 1
vn 0 0 -1
f 537/537/135 538/538/135 539/539/135
f 537/537/135 539/539/135 540/540/135
v -0.9375 2 1
v -0.125 2 1
v -0.125 2.8125 1
v -0.9375 2.8125 1
vt 0 1
vt 0 0.5
vt 0.25 0.5
vt 0.25 1
vn 0 0 1
f 541/541/136 542/542/136 543/543/136
f 541/541/136 543/543/136 544/544/136
v -0.9375 2 0.5
v -0.9375 2 1
v -0.9375 2.8125 1
v -0.9375 2.8125 0.5
vt 0.25 1
vt 0.25 0.5
vt 0.5 0.5
vt 0.5 1
vn -1 0 0
f 545/545/137 546/546/137 547/547/137
f 545/545/137 547/547/137 548/548/137
v -0.125 2 0.5
v -0.125 2.8125 0.5
v -0.125 2.8125 1
v -0.125 2 1
vt 0.25 1
vt 0.25 0.5
vt 0.5 0.5
vt 0.5 1
vn 1 0 0
f 549/549/138 550/550/138 551/551/138
f 549/549/138 551/551/138 552/552/138
o right_upper_top_cap
v -0.96875 2.75 0.46875
v -0.09375 2.75 0.46875
v -0.09375 2.75 1
v -0.96875 2.75 1
vt 0.25 1
vt 0.25 0.5
vt 0.5 0.5
vt 0.5 1
vn 0 -1 0
f 553/553/139 554/554/139 555/555/139
f 553/553/139 555/555/139 556/556/139
v -0.96875 2.875 0.46875
v -0.96875 2.875 1
v -0.09375 2.875 1
v -0.09375 2.875 0.46875
vt 0 0.5
vt 0 0
vt 0.25 0
vt 0.25 0.5
vn 0 1 0
f 557/557/140 558/558/140 559/559/140
f 557/557/140 559/559/140 560/560/140
v -0.96875 2.75 0.46875
v -0.96875 2.875 0.46875
v -0.09375 2.875 0.46875
v -0.09375 2.75 0.46875
vt 0.25 1
vt 0.25 0.5
vt 0.5 0.5
vt 0.5 1
vn 0 0 -1
f 561/561/141 562/562/141 563/563/141
f 561/561/141 563/563/141 564/564/141
v -0.96875 2.75 1
v -0.09375 2.75 1
v -0.09375 2.875 1
v -0.96875 2.875 1
vt 0.25 1
vt 0.25 0.5
vt 0.5 0.5
vt 0.5 1
vn 0 0 1
f 565/565/142 566/566/142 567/567/142
f 565/565/142 567/567/142 568/568/142
v -0.96875 2.75 0.46875
v -0.96875 2.75 1
v -0.96875 2.875 1
v -0.96875 2.875 0.46875
vt 0.25 1
vt 0.25 0.5
vt 0.5 0.5
vt 0.5 1
vn -1 0 0
f 569/569/143 570/570/143 571/571/143
f 569/569/143 571/571/143 572/572/143
v -0.09375 2.75 0.46875
v -0.09375 2.875 0.46875
v -0.09375 2.875 1
v -0.09375 2.75 1
vt 0.25 1
vt 0.25 0.5
vt 0.5 0.5
vt 0.5 1
vn 1 0 0
f 573/573/144 574/574/144 575/575/144
f 573/573/144 575/575/144 576/576/144
o right_upper_cyan_display
v -0.875 2.1875 0.46875
v -0.34375 2.1875 0.46875
v -0.34375 2.1875 0.515625
v -0.875 2.1875 0.515625
vt 0 0.5
vt 0 0
vt 0.25 0
vt 0.25 0.5
vn 0 -1 0
f 577/577/145 578/578/145 579/579/145
f 577/577/145 579/579/145 580/580/145
v -0.875 2.6875 0.46875
v -0.875 2.6875 0.515625
v -0.34375 2.6875 0.515625
v -0.34375 2.6875 0.46875
vt 0 0.5
vt 0 0
vt 0.25 0
vt 0.25 0.5
vn 0 1 0
f 581/581/146 582/582/146 583/583/146
f 581/581/146 583/583/146 584/584/146
v -0.875 2.1875 0.46875
v -0.875 2.6875 0.46875
v -0.34375 2.6875 0.46875
v -0.34375 2.1875 0.46875
vt 0 0.5
vt 0 0
vt 0.25 0
vt 0.25 0.5
vn 0 0 -1
f 585/585/147 586/586/147 587/587/147
f 585/585/147 587/587/147 588/588/147
v -0.875 2.1875 0.515625
v -0.34375 2.1875 0.515625
v -0.34375 2.6875 0.515625
v -0.875 2.6875 0.515625
vt 0 0.5
vt 0 0
vt 0.25 0
vt 0.25 0.5
vn 0 0 1
f 589/589/148 590/590/148 591/591/148
f 589/589/148 591/591/148 592/592/148
v -0.875 2.1875 0.46875
v -0.875 2.1875 0.515625
v -0.875 2.6875 0.515625
v -0.875 2.6875 0.46875
vt 0 0.5
vt 0 0
vt 0.25 0
vt 0.25 0.5
vn -1 0 0
f 593/593/149 594/594/149 595/595/149
f 593/593/149 595/595/149 596/596/149
v -0.34375 2.1875 0.46875
v -0.34375 2.6875 0.46875
v -0.34375 2.6875 0.515625
v -0.34375 2.1875 0.515625
vt 0 0.5
vt 0 0
vt 0.25 0
vt 0.25 0.5
vn 1 0 0
f 597/597/150 598/598/150 599/599/150
f 597/597/150 599/599/150 600/600/150
o right_upper_red_button
v -0.28125 2.5625 0.453125
v -0.1875 2.5625 0.453125
v -0.1875 2.5625 0.515625
v -0.28125 2.5625 0.515625
vt 0.75 1
vt 0.75 0.5
vt 1 0.5
vt 1 1
vn 0 -1 0
f 601/601/151 602/602/151 603/603/151
f 601/601/151 603/603/151 604/604/151
v -0.28125 2.65625 0.453125
v -0.28125 2.65625 0.515625
v -0.1875 2.65625 0.515625
v -0.1875 2.65625 0.453125
vt 0.75 1
vt 0.75 0.5
vt 1 0.5
vt 1 1
vn 0 1 0
f 605/605/152 606/606/152 607/607/152
f 605/605/152 607/607/152 608/608/152
v -0.28125 2.5625 0.453125
v -0.28125 2.65625 0.453125
v -0.1875 2.65625 0.453125
v -0.1875 2.5625 0.453125
vt 0.75 1
vt 0.75 0.5
vt 1 0.5
vt 1 1
vn 0 0 -1
f 609/609/153 610/610/153 611/611/153
f 609/609/153 611/611/153 612/612/153
v -0.28125 2.5625 0.515625
v -0.1875 2.5625 0.515625
v -0.1875 2.65625 0.515625
v -0.28125 2.65625 0.515625
vt 0.75 1
vt 0.75 0.5
vt 1 0.5
vt 1 1
vn 0 0 1
f 613/613/154 614/614/154 615/615/154
f 613/613/154 615/615/154 616/616/154
v -0.28125 2.5625 0.453125
v -0.28125 2.5625 0.515625
v -0.28125 2.65625 0.515625
v -0.28125 2.65625 0.453125
vt 0.75 1
vt 0.75 0.5
vt 1 0.5
vt 1 1
vn -1 0 0
f 617/617/155 618/618/155 619/619/155
f 617/617/155 619/619/155 620/620/155
v -0.1875 2.5625 0.453125
v -0.1875 2.65625 0.453125
v -0.1875 2.65625 0.515625
v -0.1875 2.5625 0.515625
vt 0.75 1
vt 0.75 0.5
vt 1 0.5
vt 1 1
vn 1 0 0
f 621/621/156 622/622/156 623/623/156
f 621/621/156 623/623/156 624/624/156
o right_upper_yellow_button
v -0.28125 2.40625 0.453125
v -0.1875 2.40625 0.453125
v -0.1875 2.40625 0.515625
v -0.28125 2.40625 0.515625
vt 0.25 0.5
vt 0.25 0
vt 0.5 0
vt 0.5 0.5
vn 0 -1 0
f 625/625/157 626/626/157 627/627/157
f 625/625/157 627/627/157 628/628/157
v -0.28125 2.5 0.453125
v -0.28125 2.5 0.515625
v -0.1875 2.5 0.515625
v -0.1875 2.5 0.453125
vt 0.25 0.5
vt 0.25 0
vt 0.5 0
vt 0.5 0.5
vn 0 1 0
f 629/629/158 630/630/158 631/631/158
f 629/629/158 631/631/158 632/632/158
v -0.28125 2.40625 0.453125
v -0.28125 2.5 0.453125
v -0.1875 2.5 0.453125
v -0.1875 2.40625 0.453125
vt 0.25 0.5
vt 0.25 0
vt 0.5 0
vt 0.5 0.5
vn 0 0 -1
f 633/633/159 634/634/159 635/635/159
f 633/633/159 635/635/159 636/636/159
v -0.28125 2.40625 0.515625
v -0.1875 2.40625 0.515625
v -0.1875 2.5 0.515625
v -0.28125 2.5 0.515625
vt 0.25 0.5
vt 0.25 0
vt 0.5 0
vt 0.5 0.5
vn 0 0 1
f 637/637/160 638/638/160 639/639/160
f 637/637/160 639/639/160 640/640/160
v -0.28125 2.40625 0.453125
v -0.28125 2.40625 0.515625
v -0.28125 2.5 0.515625
v -0.28125 2.5 0.453125
vt 0.25 0.5
vt 0.25 0
vt 0.5 0
vt 0.5 0.5
vn -1 0 0
f 641/641/161 642/642/161 643/643/161
f 641/641/161 643/643/161 644/644/161
v -0.1875 2.40625 0.453125
v -0.1875 2.5 0.453125
v -0.1875 2.5 0.515625
v -0.1875 2.40625 0.515625
vt 0.25 0.5
vt 0.25 0
vt 0.5 0
vt 0.5 0.5
vn 1 0 0
f 645/645/162 646/646/162 647/647/162
f 645/645/162 647/647/162 648/648/162
o right_upper_green_button
v -0.28125 2.25 0.453125
v -0.1875 2.25 0.453125
v -0.1875 2.25 0.515625
v -0.28125 2.25 0.515625
vt 0.5 0.5
vt 0.5 0
vt 0.75 0
vt 0.75 0.5
vn 0 -1 0
f 649/649/163 650/650/163 651/651/163
f 649/649/163 651/651/163 652/652/163
v -0.28125 2.34375 0.453125
v -0.28125 2.34375 0.515625
v -0.1875 2.34375 0.515625
v -0.1875 2.34375 0.453125
vt 0.5 0.5
vt 0.5 0
vt 0.75 0
vt 0.75 0.5
vn 0 1 0
f 653/653/164 654/654/164 655/655/164
f 653/653/164 655/655/164 656/656/164
v -0.28125 2.25 0.453125
v -0.28125 2.34375 0.453125
v -0.1875 2.34375 0.453125
v -0.1875 2.25 0.453125
vt 0.5 0.5
vt 0.5 0
vt 0.75 0
vt 0.75 0.5
vn 0 0 -1
f 657/657/165 658/658/165 659/659/165
f 657/657/165 659/659/165 660/660/165
v -0.28125 2.25 0.515625
v -0.1875 2.25 0.515625
v -0.1875 2.34375 0.515625
v -0.28125 2.34375 0.515625
vt 0.5 0.5
vt 0.5 0
vt 0.75 0
vt 0.75 0.5
vn 0 0 1
f 661/661/166 662/662/166 663/663/166
f 661/661/166 663/663/166 664/664/166
v -0.28125 2.25 0.453125
v -0.28125 2.25 0.515625
v -0.28125 2.34375 0.515625
v -0.28125 2.34375 0.453125
vt 0.5 0.5
vt 0.5 0
vt 0.75 0
vt 0.75 0.5
vn -1 0 0
f 665/665/167 666/666/167 667/667/167
f 665/665/167 667/667/167 668/668/167
v -0.1875 2.25 0.453125
v -0.1875 2.34375 0.453125
v -0.1875 2.34375 0.515625
v -0.1875 2.25 0.515625
vt 0.5 0.5
vt 0.5 0
vt 0.75 0
vt 0.75 0.5
vn 1 0 0
f 669/669/168 670/670/168 671/671/168
f 669/669/168 671/671/168 672/672/168
