# Generated from the Cobbleventure Blockbench workspace model.
mtllib professor_lab_research_device_1.mtl
usemtl machine_texture
s off
o north_west_lower_base_quarter_wide
v 0 0 0
v 1 0 0
v 1 0 0.8125
v 0 0 0.8125
vt 0.5 1
vt 0.5 0
vt 0.75 0
vt 0.75 1
vn 0 -1 0
f 1/1/1 2/2/1 3/3/1
f 1/1/1 3/3/1 4/4/1
v 0 0.4375 0
v 0 0.4375 0.8125
v 1 0.4375 0.8125
v 1 0.4375 0
vt 0 1
vt 0 0
vt 0.25 0
vt 0.25 1
vn 0 1 0
f 5/5/2 6/6/2 7/7/2
f 5/5/2 7/7/2 8/8/2
v 0 0 0
v 0 0.4375 0
v 1 0.4375 0
v 1 0 0
vt 0 1
vt 0 0
vt 0.25 0
vt 0.25 1
vn 0 0 -1
f 9/9/3 10/10/3 11/11/3
f 9/9/3 11/11/3 12/12/3
v 0 0 0.8125
v 1 0 0.8125
v 1 0.4375 0.8125
v 0 0.4375 0.8125
vt 0 1
vt 0 0
vt 0.25 0
vt 0.25 1
vn 0 0 1
f 13/13/4 14/14/4 15/15/4
f 13/13/4 15/15/4 16/16/4
v 0 0 0
v 0 0 0.8125
v 0 0.4375 0.8125
v 0 0.4375 0
vt 0 1
vt 0 0
vt 0.25 0
vt 0.25 1
vn -1 0 0
f 17/17/5 18/18/5 19/19/5
f 17/17/5 19/19/5 20/20/5
v 1 0 0
v 1 0.4375 0
v 1 0.4375 0.8125
v 1 0 0.8125
vt 0 1
vt 0 0
vt 0.25 0
vt 0.25 1
vn 1 0 0
f 21/21/6 22/22/6 23/23/6
f 21/21/6 23/23/6 24/24/6
o north_west_lower_base_quarter_cross
v 0 0 0
v 0.8125 0 0
v 0.8125 0 1
v 0 0 1
vt 0.5 1
vt 0.5 0
vt 0.75 0
vt 0.75 1
vn 0 -1 0
f 25/25/7 26/26/7 27/27/7
f 25/25/7 27/27/7 28/28/7
v 0 0.4375 0
v 0 0.4375 1
v 0.8125 0.4375 1
v 0.8125 0.4375 0
vt 0 1
vt 0 0
vt 0.25 0
vt 0.25 1
vn 0 1 0
f 29/29/8 30/30/8 31/31/8
f 29/29/8 31/31/8 32/32/8
v 0 0 0
v 0 0.4375 0
v 0.8125 0.4375 0
v 0.8125 0 0
vt 0 1
vt 0 0
vt 0.25 0
vt 0.25 1
vn 0 0 -1
f 33/33/9 34/34/9 35/35/9
f 33/33/9 35/35/9 36/36/9
v 0 0 1
v 0.8125 0 1
v 0.8125 0.4375 1
v 0 0.4375 1
vt 0 1
vt 0 0
vt 0.25 0
vt 0.25 1
vn 0 0 1
f 37/37/10 38/38/10 39/39/10
f 37/37/10 39/39/10 40/40/10
v 0 0 0
v 0 0 1
v 0 0.4375 1
v 0 0.4375 0
vt 0 1
vt 0 0
vt 0.25 0
vt 0.25 1
vn -1 0 0
f 41/41/11 42/42/11 43/43/11
f 41/41/11 43/43/11 44/44/11
v 0.8125 0 0
v 0.8125 0.4375 0
v 0.8125 0.4375 1
v 0.8125 0 1
vt 0 1
vt 0 0
vt 0.25 0
vt 0.25 1
vn 1 0 0
f 45/45/12 46/46/12 47/47/12
f 45/45/12 47/47/12 48/48/12
o north_west_lower_outer_support
v 0.75 0 0.75
v 1 0 0.75
v 1 0 1
v 0.75 0 1
vt 0.5 1
vt 0.5 0
vt 0.75 0
vt 0.75 1
vn 0 -1 0
f 49/49/13 50/50/13 51/51/13
f 49/49/13 51/51/13 52/52/13
v 0.75 0.375 0.75
v 0.75 0.375 1
v 1 0.375 1
v 1 0.375 0.75
vt 0 1
vt 0 0
vt 0.25 0
vt 0.25 1
vn 0 1 0
f 53/53/14 54/54/14 55/55/14
f 53/53/14 55/55/14 56/56/14
v 0.75 0 0.75
v 0.75 0.375 0.75
v 1 0.375 0.75
v 1 0 0.75
vt 0 1
vt 0 0
vt 0.25 0
vt 0.25 1
vn 0 0 -1
f 57/57/15 58/58/15 59/59/15
f 57/57/15 59/59/15 60/60/15
v 0.75 0 1
v 1 0 1
v 1 0.375 1
v 0.75 0.375 1
vt 0 1
vt 0 0
vt 0.25 0
vt 0.25 1
vn 0 0 1
f 61/61/16 62/62/16 63/63/16
f 61/61/16 63/63/16 64/64/16
v 0.75 0 0.75
v 0.75 0 1
v 0.75 0.375 1
v 0.75 0.375 0.75
vt 0 1
vt 0 0
vt 0.25 0
vt 0.25 1
vn -1 0 0
f 65/65/17 66/66/17 67/67/17
f 65/65/17 67/67/17 68/68/17
v 1 0 0.75
v 1 0.375 0.75
v 1 0.375 1
v 1 0 1
vt 0 1
vt 0 0
vt 0.25 0
vt 0.25 1
vn 1 0 0
f 69/69/18 70/70/18 71/71/18
f 69/69/18 71/71/18 72/72/18
o north_west_lower_blue_cylinder_lower_wide
v 0 0.4375 0
v 0.9375 0.4375 0
v 0.9375 0.4375 0.75
v 0 0.4375 0.75
vt 0.25 1
vt 0.25 0
vt 0.5 0
vt 0.5 1
vn 0 -1 0
f 73/73/19 74/74/19 75/75/19
f 73/73/19 75/75/19 76/76/19
v 0 1 0
v 0 1 0.75
v 0.9375 1 0.75
v 0.9375 1 0
vt 0.25 1
vt 0.25 0
vt 0.5 0
vt 0.5 1
vn 0 1 0
f 77/77/20 78/78/20 79/79/20
f 77/77/20 79/79/20 80/80/20
v 0 0.4375 0
v 0 1 0
v 0.9375 1 0
v 0.9375 0.4375 0
vt 0.25 1
vt 0.25 0
vt 0.5 0
vt 0.5 1
vn 0 0 -1
f 81/81/21 82/82/21 83/83/21
f 81/81/21 83/83/21 84/84/21
v 0 0.4375 0.75
v 0.9375 0.4375 0.75
v 0.9375 1 0.75
v 0 1 0.75
vt 0.25 1
vt 0.25 0
vt 0.5 0
vt 0.5 1
vn 0 0 1
f 85/85/22 86/86/22 87/87/22
f 85/85/22 87/87/22 88/88/22
v 0 0.4375 0
v 0 0.4375 0.75
v 0 1 0.75
v 0 1 0
vt 0.25 1
vt 0.25 0
vt 0.5 0
vt 0.5 1
vn -1 0 0
f 89/89/23 90/90/23 91/91/23
f 89/89/23 91/91/23 92/92/23
v 0.9375 0.4375 0
v 0.9375 1 0
v 0.9375 1 0.75
v 0.9375 0.4375 0.75
vt 0.25 1
vt 0.25 0
vt 0.5 0
vt 0.5 1
vn 1 0 0
f 93/93/24 94/94/24 95/95/24
f 93/93/24 95/95/24 96/96/24
o north_west_lower_blue_cylinder_lower_cross
v 0 0.4375 0
v 0.75 0.4375 0
v 0.75 0.4375 0.9375
v 0 0.4375 0.9375
vt 0.25 1
vt 0.25 0
vt 0.5 0
vt 0.5 1
vn 0 -1 0
f 97/97/25 98/98/25 99/99/25
f 97/97/25 99/99/25 100/100/25
v 0 1 0
v 0 1 0.9375
v 0.75 1 0.9375
v 0.75 1 0
vt 0.25 1
vt 0.25 0
vt 0.5 0
vt 0.5 1
vn 0 1 0
f 101/101/26 102/102/26 103/103/26
f 101/101/26 103/103/26 104/104/26
v 0 0.4375 0
v 0 1 0
v 0.75 1 0
v 0.75 0.4375 0
vt 0.25 1
vt 0.25 0
vt 0.5 0
vt 0.5 1
vn 0 0 -1
f 105/105/27 106/106/27 107/107/27
f 105/105/27 107/107/27 108/108/27
v 0 0.4375 0.9375
v 0.75 0.4375 0.9375
v 0.75 1 0.9375
v 0 1 0.9375
vt 0.25 1
vt 0.25 0
vt 0.5 0
vt 0.5 1
vn 0 0 1
f 109/109/28 110/110/28 111/111/28
f 109/109/28 111/111/28 112/112/28
v 0 0.4375 0
v 0 0.4375 0.9375
v 0 1 0.9375
v 0 1 0
vt 0.25 1
vt 0.25 0
vt 0.5 0
vt 0.5 1
vn -1 0 0
f 113/113/29 114/114/29 115/115/29
f 113/113/29 115/115/29 116/116/29
v 0.75 0.4375 0
v 0.75 1 0
v 0.75 1 0.9375
v 0.75 0.4375 0.9375
vt 0.25 1
vt 0.25 0
vt 0.5 0
vt 0.5 1
vn 1 0 0
f 117/117/30 118/118/30 119/119/30
f 117/117/30 119/119/30 120/120/30
o north_west_upper_blue_cylinder_upper_wide
v 0 1 0
v 0.9375 1 0
v 0.9375 1 0.75
v 0 1 0.75
vt 0.25 1
vt 0.25 0
vt 0.5 0
vt 0.5 1
vn 0 -1 0
f 121/121/31 122/122/31 123/123/31
f 121/121/31 123/123/31 124/124/31
v 0 1.375 0
v 0 1.375 0.75
v 0.9375 1.375 0.75
v 0.9375 1.375 0
vt 0.25 1
vt 0.25 0
vt 0.5 0
vt 0.5 1
vn 0 1 0
f 125/125/32 126/126/32 127/127/32
f 125/125/32 127/127/32 128/128/32
v 0 1 0
v 0 1.375 0
v 0.9375 1.375 0
v 0.9375 1 0
vt 0.25 1
vt 0.25 0
vt 0.5 0
vt 0.5 1
vn 0 0 -1
f 129/129/33 130/130/33 131/131/33
f 129/129/33 131/131/33 132/132/33
v 0 1 0.75
v 0.9375 1 0.75
v 0.9375 1.375 0.75
v 0 1.375 0.75
vt 0.25 1
vt 0.25 0
vt 0.5 0
vt 0.5 1
vn 0 0 1
f 133/133/34 134/134/34 135/135/34
f 133/133/34 135/135/34 136/136/34
v 0 1 0
v 0 1 0.75
v 0 1.375 0.75
v 0 1.375 0
vt 0.25 1
vt 0.25 0
vt 0.5 0
vt 0.5 1
vn -1 0 0
f 137/137/35 138/138/35 139/139/35
f 137/137/35 139/139/35 140/140/35
v 0.9375 1 0
v 0.9375 1.375 0
v 0.9375 1.375 0.75
v 0.9375 1 0.75
vt 0.25 1
vt 0.25 0
vt 0.5 0
vt 0.5 1
vn 1 0 0
f 141/141/36 142/142/36 143/143/36
f 141/141/36 143/143/36 144/144/36
o north_west_upper_blue_cylinder_upper_cross
v 0 1 0
v 0.75 1 0
v 0.75 1 0.9375
v 0 1 0.9375
vt 0.25 1
vt 0.25 0
vt 0.5 0
vt 0.5 1
vn 0 -1 0
f 145/145/37 146/146/37 147/147/37
f 145/145/37 147/147/37 148/148/37
v 0 1.375 0
v 0 1.375 0.9375
v 0.75 1.375 0.9375
v 0.75 1.375 0
vt 0.25 1
vt 0.25 0
vt 0.5 0
vt 0.5 1
vn 0 1 0
f 149/149/38 150/150/38 151/151/38
f 149/149/38 151/151/38 152/152/38
v 0 1 0
v 0 1.375 0
v 0.75 1.375 0
v 0.75 1 0
vt 0.25 1
vt 0.25 0
vt 0.5 0
vt 0.5 1
vn 0 0 -1
f 153/153/39 154/154/39 155/155/39
f 153/153/39 155/155/39 156/156/39
v 0 1 0.9375
v 0.75 1 0.9375
v 0.75 1.375 0.9375
v 0 1.375 0.9375
vt 0.25 1
vt 0.25 0
vt 0.5 0
vt 0.5 1
vn 0 0 1
f 157/157/40 158/158/40 159/159/40
f 157/157/40 159/159/40 160/160/40
v 0 1 0
v 0 1 0.9375
v 0 1.375 0.9375
v 0 1.375 0
vt 0.25 1
vt 0.25 0
vt 0.5 0
vt 0.5 1
vn -1 0 0
f 161/161/41 162/162/41 163/163/41
f 161/161/41 163/163/41 164/164/41
v 0.75 1 0
v 0.75 1.375 0
v 0.75 1.375 0.9375
v 0.75 1 0.9375
vt 0.25 1
vt 0.25 0
vt 0.5 0
vt 0.5 1
vn 1 0 0
f 165/165/42 166/166/42 167/167/42
f 165/165/42 167/167/42 168/168/42
o north_west_upper_white_rim_quarter_wide
v 0 1.375 0
v 1 1.375 0
v 1 1.375 0.8125
v 0 1.375 0.8125
vt 0 1
vt 0 0
vt 0.25 0
vt 0.25 1
vn 0 -1 0
f 169/169/43 170/170/43 171/171/43
f 169/169/43 171/171/43 172/172/43
v 0 1.65625 0
v 0 1.65625 0.8125
v 1 1.65625 0.8125
v 1 1.65625 0
vt 0 1
vt 0 0
vt 0.25 0
vt 0.25 1
vn 0 1 0
f 173/173/44 174/174/44 175/175/44
f 173/173/44 175/175/44 176/176/44
v 0 1.375 0
v 0 1.65625 0
v 1 1.65625 0
v 1 1.375 0
vt 0 1
vt 0 0
vt 0.25 0
vt 0.25 1
vn 0 0 -1
f 177/177/45 178/178/45 179/179/45
f 177/177/45 179/179/45 180/180/45
v 0 1.375 0.8125
v 1 1.375 0.8125
v 1 1.65625 0.8125
v 0 1.65625 0.8125
vt 0 1
vt 0 0
vt 0.25 0
vt 0.25 1
vn 0 0 1
f 181/181/46 182/182/46 183/183/46
f 181/181/46 183/183/46 184/184/46
v 0 1.375 0
v 0 1.375 0.8125
v 0 1.65625 0.8125
v 0 1.65625 0
vt 0 1
vt 0 0
vt 0.25 0
vt 0.25 1
vn -1 0 0
f 185/185/47 186/186/47 187/187/47
f 185/185/47 187/187/47 188/188/47
v 1 1.375 0
v 1 1.65625 0
v 1 1.65625 0.8125
v 1 1.375 0.8125
vt 0 1
vt 0 0
vt 0.25 0
vt 0.25 1
vn 1 0 0
f 189/189/48 190/190/48 191/191/48
f 189/189/48 191/191/48 192/192/48
o north_west_upper_white_rim_quarter_cross
v 0 1.375 0
v 0.8125 1.375 0
v 0.8125 1.375 1
v 0 1.375 1
vt 0 1
vt 0 0
vt 0.25 0
vt 0.25 1
vn 0 -1 0
f 193/193/49 194/194/49 195/195/49
f 193/193/49 195/195/49 196/196/49
v 0 1.65625 0
v 0 1.65625 1
v 0.8125 1.65625 1
v 0.8125 1.65625 0
vt 0 1
vt 0 0
vt 0.25 0
vt 0.25 1
vn 0 1 0
f 197/197/50 198/198/50 199/199/50
f 197/197/50 199/199/50 200/200/50
v 0 1.375 0
v 0 1.65625 0
v 0.8125 1.65625 0
v 0.8125 1.375 0
vt 0 1
vt 0 0
vt 0.25 0
vt 0.25 1
vn 0 0 -1
f 201/201/51 202/202/51 203/203/51
f 201/201/51 203/203/51 204/204/51
v 0 1.375 1
v 0.8125 1.375 1
v 0.8125 1.65625 1
v 0 1.65625 1
vt 0 1
vt 0 0
vt 0.25 0
vt 0.25 1
vn 0 0 1
f 205/205/52 206/206/52 207/207/52
f 205/205/52 207/207/52 208/208/52
v 0 1.375 0
v 0 1.375 1
v 0 1.65625 1
v 0 1.65625 0
vt 0 1
vt 0 0
vt 0.25 0
vt 0.25 1
vn -1 0 0
f 209/209/53 210/210/53 211/211/53
f 209/209/53 211/211/53 212/212/53
v 0.8125 1.375 0
v 0.8125 1.65625 0
v 0.8125 1.65625 1
v 0.8125 1.375 1
vt 0 1
vt 0 0
vt 0.25 0
vt 0.25 1
vn 1 0 0
f 213/213/54 214/214/54 215/215/54
f 213/213/54 215/215/54 216/216/54
o north_west_upper_red_plate_quarter_wide
v 0 1.65625 0
v 0.75 1.65625 0
v 0.75 1.65625 0.625
v 0 1.65625 0.625
vt 0.75 1
vt 0.75 0
vt 1 0
vt 1 1
vn 0 -1 0
f 217/217/55 218/218/55 219/219/55
f 217/217/55 219/219/55 220/220/55
v 0 1.75 0
v 0 1.75 0.625
v 0.75 1.75 0.625
v 0.75 1.75 0
vt 0.75 1
vt 0.75 0
vt 1 0
vt 1 1
vn 0 1 0
f 221/221/56 222/222/56 223/223/56
f 221/221/56 223/223/56 224/224/56
v 0 1.65625 0
v 0 1.75 0
v 0.75 1.75 0
v 0.75 1.65625 0
vt 0.75 1
vt 0.75 0
vt 1 0
vt 1 1
vn 0 0 -1
f 225/225/57 226/226/57 227/227/57
f 225/225/57 227/227/57 228/228/57
v 0 1.65625 0.625
v 0.75 1.65625 0.625
v 0.75 1.75 0.625
v 0 1.75 0.625
vt 0.75 1
vt 0.75 0
vt 1 0
vt 1 1
vn 0 0 1
f 229/229/58 230/230/58 231/231/58
f 229/229/58 231/231/58 232/232/58
v 0 1.65625 0
v 0 1.65625 0.625
v 0 1.75 0.625
v 0 1.75 0
vt 0.75 1
vt 0.75 0
vt 1 0
vt 1 1
vn -1 0 0
f 233/233/59 234/234/59 235/235/59
f 233/233/59 235/235/59 236/236/59
v 0.75 1.65625 0
v 0.75 1.75 0
v 0.75 1.75 0.625
v 0.75 1.65625 0.625
vt 0.75 1
vt 0.75 0
vt 1 0
vt 1 1
vn 1 0 0
f 237/237/60 238/238/60 239/239/60
f 237/237/60 239/239/60 240/240/60
o north_west_upper_red_plate_quarter_cross
v 0 1.65625 0
v 0.625 1.65625 0
v 0.625 1.65625 0.75
v 0 1.65625 0.75
vt 0.75 1
vt 0.75 0
vt 1 0
vt 1 1
vn 0 -1 0
f 241/241/61 242/242/61 243/243/61
f 241/241/61 243/243/61 244/244/61
v 0 1.75 0
v 0 1.75 0.75
v 0.625 1.75 0.75
v 0.625 1.75 0
vt 0.75 1
vt 0.75 0
vt 1 0
vt 1 1
vn 0 1 0
f 245/245/62 246/246/62 247/247/62
f 245/245/62 247/247/62 248/248/62
v 0 1.65625 0
v 0 1.75 0
v 0.625 1.75 0
v 0.625 1.65625 0
vt 0.75 1
vt 0.75 0
vt 1 0
vt 1 1
vn 0 0 -1
f 249/249/63 250/250/63 251/251/63
f 249/249/63 251/251/63 252/252/63
v 0 1.65625 0.75
v 0.625 1.65625 0.75
v 0.625 1.75 0.75
v 0 1.75 0.75
vt 0.75 1
vt 0.75 0
vt 1 0
vt 1 1
vn 0 0 1
f 253/253/64 254/254/64 255/255/64
f 253/253/64 255/255/64 256/256/64
v 0 1.65625 0
v 0 1.65625 0.75
v 0 1.75 0.75
v 0 1.75 0
vt 0.75 1
vt 0.75 0
vt 1 0
vt 1 1
vn -1 0 0
f 257/257/65 258/258/65 259/259/65
f 257/257/65 259/259/65 260/260/65
v 0.625 1.65625 0
v 0.625 1.75 0
v 0.625 1.75 0.75
v 0.625 1.65625 0.75
vt 0.75 1
vt 0.75 0
vt 1 0
vt 1 1
vn 1 0 0
f 261/261/66 262/262/66 263/263/66
f 261/261/66 263/263/66 264/264/66
o north_east_lower_base_quarter_wide
v -0.8125 0 0
v 0 0 0
v 0 0 1
v -0.8125 0 1
vt 0.5 1
vt 0.5 0
vt 0.75 0
vt 0.75 1
vn 0 -1 0
f 265/265/67 266/266/67 267/267/67
f 265/265/67 267/267/67 268/268/67
v -0.8125 0.4375 0
v -0.8125 0.4375 1
v 0 0.4375 1
v 0 0.4375 0
vt 0 1
vt 0 0
vt 0.25 0
vt 0.25 1
vn 0 1 0
f 269/269/68 270/270/68 271/271/68
f 269/269/68 271/271/68 272/272/68
v 0 0 0
v 0 0.4375 0
v 0 0.4375 1
v 0 0 1
vt 0 1
vt 0 0
vt 0.25 0
vt 0.25 1
vn 1 0 0
f 273/273/69 274/274/69 275/275/69
f 273/273/69 275/275/69 276/276/69
v -0.8125 0 0
v -0.8125 0 1
v -0.8125 0.4375 1
v -0.8125 0.4375 0
vt 0 1
vt 0 0
vt 0.25 0
vt 0.25 1
vn -1 0 0
f 277/277/70 278/278/70 279/279/70
f 277/277/70 279/279/70 280/280/70
v -0.8125 0 0
v -0.8125 0.4375 0
v 0 0.4375 0
v 0 0 0
vt 0 1
vt 0 0
vt 0.25 0
vt 0.25 1
vn 0 0 -1
f 281/281/71 282/282/71 283/283/71
f 281/281/71 283/283/71 284/284/71
v -0.8125 0 1
v 0 0 1
v 0 0.4375 1
v -0.8125 0.4375 1
vt 0 1
vt 0 0
vt 0.25 0
vt 0.25 1
vn 0 0 1
f 285/285/72 286/286/72 287/287/72
f 285/285/72 287/287/72 288/288/72
o north_east_lower_base_quarter_cross
v -1 0 0
v 0 0 0
v 0 0 0.8125
v -1 0 0.8125
vt 0.5 1
vt 0.5 0
vt 0.75 0
vt 0.75 1
vn 0 -1 0
f 289/289/73 290/290/73 291/291/73
f 289/289/73 291/291/73 292/292/73
v -1 0.4375 0
v -1 0.4375 0.8125
v 0 0.4375 0.8125
v 0 0.4375 0
vt 0 1
vt 0 0
vt 0.25 0
vt 0.25 1
vn 0 1 0
f 293/293/74 294/294/74 295/295/74
f 293/293/74 295/295/74 296/296/74
v 0 0 0
v 0 0.4375 0
v 0 0.4375 0.8125
v 0 0 0.8125
vt 0 1
vt 0 0
vt 0.25 0
vt 0.25 1
vn 1 0 0
f 297/297/75 298/298/75 299/299/75
f 297/297/75 299/299/75 300/300/75
v -1 0 0
v -1 0 0.8125
v -1 0.4375 0.8125
v -1 0.4375 0
vt 0 1
vt 0 0
vt 0.25 0
vt 0.25 1
vn -1 0 0
f 301/301/76 302/302/76 303/303/76
f 301/301/76 303/303/76 304/304/76
v -1 0 0
v -1 0.4375 0
v 0 0.4375 0
v 0 0 0
vt 0 1
vt 0 0
vt 0.25 0
vt 0.25 1
vn 0 0 -1
f 305/305/77 306/306/77 307/307/77
f 305/305/77 307/307/77 308/308/77
v -1 0 0.8125
v 0 0 0.8125
v 0 0.4375 0.8125
v -1 0.4375 0.8125
vt 0 1
vt 0 0
vt 0.25 0
vt 0.25 1
vn 0 0 1
f 309/309/78 310/310/78 311/311/78
f 309/309/78 311/311/78 312/312/78
o north_east_lower_outer_support
v -1 0 0.75
v -0.75 0 0.75
v -0.75 0 1
v -1 0 1
vt 0.5 1
vt 0.5 0
vt 0.75 0
vt 0.75 1
vn 0 -1 0
f 313/313/79 314/314/79 315/315/79
f 313/313/79 315/315/79 316/316/79
v -1 0.375 0.75
v -1 0.375 1
v -0.75 0.375 1
v -0.75 0.375 0.75
vt 0 1
vt 0 0
vt 0.25 0
vt 0.25 1
vn 0 1 0
f 317/317/80 318/318/80 319/319/80
f 317/317/80 319/319/80 320/320/80
v -0.75 0 0.75
v -0.75 0.375 0.75
v -0.75 0.375 1
v -0.75 0 1
vt 0 1
vt 0 0
vt 0.25 0
vt 0.25 1
vn 1 0 0
f 321/321/81 322/322/81 323/323/81
f 321/321/81 323/323/81 324/324/81
v -1 0 0.75
v -1 0 1
v -1 0.375 1
v -1 0.375 0.75
vt 0 1
vt 0 0
vt 0.25 0
vt 0.25 1
vn -1 0 0
f 325/325/82 326/326/82 327/327/82
f 325/325/82 327/327/82 328/328/82
v -1 0 0.75
v -1 0.375 0.75
v -0.75 0.375 0.75
v -0.75 0 0.75
vt 0 1
vt 0 0
vt 0.25 0
vt 0.25 1
vn 0 0 -1
f 329/329/83 330/330/83 331/331/83
f 329/329/83 331/331/83 332/332/83
v -1 0 1
v -0.75 0 1
v -0.75 0.375 1
v -1 0.375 1
vt 0 1
vt 0 0
vt 0.25 0
vt 0.25 1
vn 0 0 1
f 333/333/84 334/334/84 335/335/84
f 333/333/84 335/335/84 336/336/84
o north_east_lower_blue_cylinder_lower_wide
v -0.75 0.4375 0
v 0 0.4375 0
v 0 0.4375 0.9375
v -0.75 0.4375 0.9375
vt 0.25 1
vt 0.25 0
vt 0.5 0
vt 0.5 1
vn 0 -1 0
f 337/337/85 338/338/85 339/339/85
f 337/337/85 339/339/85 340/340/85
v -0.75 1 0
v -0.75 1 0.9375
v 0 1 0.9375
v 0 1 0
vt 0.25 1
vt 0.25 0
vt 0.5 0
vt 0.5 1
vn 0 1 0
f 341/341/86 342/342/86 343/343/86
f 341/341/86 343/343/86 344/344/86
v 0 0.4375 0
v 0 1 0
v 0 1 0.9375
v 0 0.4375 0.9375
vt 0.25 1
vt 0.25 0
vt 0.5 0
vt 0.5 1
vn 1 0 0
f 345/345/87 346/346/87 347/347/87
f 345/345/87 347/347/87 348/348/87
v -0.75 0.4375 0
v -0.75 0.4375 0.9375
v -0.75 1 0.9375
v -0.75 1 0
vt 0.25 1
vt 0.25 0
vt 0.5 0
vt 0.5 1
vn -1 0 0
f 349/349/88 350/350/88 351/351/88
f 349/349/88 351/351/88 352/352/88
v -0.75 0.4375 0
v -0.75 1 0
v 0 1 0
v 0 0.4375 0
vt 0.25 1
vt 0.25 0
vt 0.5 0
vt 0.5 1
vn 0 0 -1
f 353/353/89 354/354/89 355/355/89
f 353/353/89 355/355/89 356/356/89
v -0.75 0.4375 0.9375
v 0 0.4375 0.9375
v 0 1 0.9375
v -0.75 1 0.9375
vt 0.25 1
vt 0.25 0
vt 0.5 0
vt 0.5 1
vn 0 0 1
f 357/357/90 358/358/90 359/359/90
f 357/357/90 359/359/90 360/360/90
o north_east_lower_blue_cylinder_lower_cross
v -0.9375 0.4375 0
v 0 0.4375 0
v 0 0.4375 0.75
v -0.9375 0.4375 0.75
vt 0.25 1
vt 0.25 0
vt 0.5 0
vt 0.5 1
vn 0 -1 0
f 361/361/91 362/362/91 363/363/91
f 361/361/91 363/363/91 364/364/91
v -0.9375 1 0
v -0.9375 1 0.75
v 0 1 0.75
v 0 1 0
vt 0.25 1
vt 0.25 0
vt 0.5 0
vt 0.5 1
vn 0 1 0
f 365/365/92 366/366/92 367/367/92
f 365/365/92 367/367/92 368/368/92
v 0 0.4375 0
v 0 1 0
v 0 1 0.75
v 0 0.4375 0.75
vt 0.25 1
vt 0.25 0
vt 0.5 0
vt 0.5 1
vn 1 0 0
f 369/369/93 370/370/93 371/371/93
f 369/369/93 371/371/93 372/372/93
v -0.9375 0.4375 0
v -0.9375 0.4375 0.75
v -0.9375 1 0.75
v -0.9375 1 0
vt 0.25 1
vt 0.25 0
vt 0.5 0
vt 0.5 1
vn -1 0 0
f 373/373/94 374/374/94 375/375/94
f 373/373/94 375/375/94 376/376/94
v -0.9375 0.4375 0
v -0.9375 1 0
v 0 1 0
v 0 0.4375 0
vt 0.25 1
vt 0.25 0
vt 0.5 0
vt 0.5 1
vn 0 0 -1
f 377/377/95 378/378/95 379/379/95
f 377/377/95 379/379/95 380/380/95
v -0.9375 0.4375 0.75
v 0 0.4375 0.75
v 0 1 0.75
v -0.9375 1 0.75
vt 0.25 1
vt 0.25 0
vt 0.5 0
vt 0.5 1
vn 0 0 1
f 381/381/96 382/382/96 383/383/96
f 381/381/96 383/383/96 384/384/96
o north_east_upper_blue_cylinder_upper_wide
v -0.75 1 0
v 0 1 0
v 0 1 0.9375
v -0.75 1 0.9375
vt 0.25 1
vt 0.25 0
vt 0.5 0
vt 0.5 1
vn 0 -1 0
f 385/385/97 386/386/97 387/387/97
f 385/385/97 387/387/97 388/388/97
v -0.75 1.375 0
v -0.75 1.375 0.9375
v 0 1.375 0.9375
v 0 1.375 0
vt 0.25 1
vt 0.25 0
vt 0.5 0
vt 0.5 1
vn 0 1 0
f 389/389/98 390/390/98 391/391/98
f 389/389/98 391/391/98 392/392/98
v 0 1 0
v 0 1.375 0
v 0 1.375 0.9375
v 0 1 0.9375
vt 0.25 1
vt 0.25 0
vt 0.5 0
vt 0.5 1
vn 1 0 0
f 393/393/99 394/394/99 395/395/99
f 393/393/99 395/395/99 396/396/99
v -0.75 1 0
v -0.75 1 0.9375
v -0.75 1.375 0.9375
v -0.75 1.375 0
vt 0.25 1
vt 0.25 0
vt 0.5 0
vt 0.5 1
vn -1 0 0
f 397/397/100 398/398/100 399/399/100
f 397/397/100 399/399/100 400/400/100
v -0.75 1 0
v -0.75 1.375 0
v 0 1.375 0
v 0 1 0
vt 0.25 1
vt 0.25 0
vt 0.5 0
vt 0.5 1
vn 0 0 -1
f 401/401/101 402/402/101 403/403/101
f 401/401/101 403/403/101 404/404/101
v -0.75 1 0.9375
v 0 1 0.9375
v 0 1.375 0.9375
v -0.75 1.375 0.9375
vt 0.25 1
vt 0.25 0
vt 0.5 0
vt 0.5 1
vn 0 0 1
f 405/405/102 406/406/102 407/407/102
f 405/405/102 407/407/102 408/408/102
o north_east_upper_blue_cylinder_upper_cross
v -0.9375 1 0
v 0 1 0
v 0 1 0.75
v -0.9375 1 0.75
vt 0.25 1
vt 0.25 0
vt 0.5 0
vt 0.5 1
vn 0 -1 0
f 409/409/103 410/410/103 411/411/103
f 409/409/103 411/411/103 412/412/103
v -0.9375 1.375 0
v -0.9375 1.375 0.75
v 0 1.375 0.75
v 0 1.375 0
vt 0.25 1
vt 0.25 0
vt 0.5 0
vt 0.5 1
vn 0 1 0
f 413/413/104 414/414/104 415/415/104
f 413/413/104 415/415/104 416/416/104
v 0 1 0
v 0 1.375 0
v 0 1.375 0.75
v 0 1 0.75
vt 0.25 1
vt 0.25 0
vt 0.5 0
vt 0.5 1
vn 1 0 0
f 417/417/105 418/418/105 419/419/105
f 417/417/105 419/419/105 420/420/105
v -0.9375 1 0
v -0.9375 1 0.75
v -0.9375 1.375 0.75
v -0.9375 1.375 0
vt 0.25 1
vt 0.25 0
vt 0.5 0
vt 0.5 1
vn -1 0 0
f 421/421/106 422/422/106 423/423/106
f 421/421/106 423/423/106 424/424/106
v -0.9375 1 0
v -0.9375 1.375 0
v 0 1.375 0
v 0 1 0
vt 0.25 1
vt 0.25 0
vt 0.5 0
vt 0.5 1
vn 0 0 -1
f 425/425/107 426/426/107 427/427/107
f 425/425/107 427/427/107 428/428/107
v -0.9375 1 0.75
v 0 1 0.75
v 0 1.375 0.75
v -0.9375 1.375 0.75
vt 0.25 1
vt 0.25 0
vt 0.5 0
vt 0.5 1
vn 0 0 1
f 429/429/108 430/430/108 431/431/108
f 429/429/108 431/431/108 432/432/108
o north_east_upper_white_rim_quarter_wide
v -0.8125 1.375 0
v 0 1.375 0
v 0 1.375 1
v -0.8125 1.375 1
vt 0 1
vt 0 0
vt 0.25 0
vt 0.25 1
vn 0 -1 0
f 433/433/109 434/434/109 435/435/109
f 433/433/109 435/435/109 436/436/109
v -0.8125 1.65625 0
v -0.8125 1.65625 1
v 0 1.65625 1
v 0 1.65625 0
vt 0 1
vt 0 0
vt 0.25 0
vt 0.25 1
vn 0 1 0
f 437/437/110 438/438/110 439/439/110
f 437/437/110 439/439/110 440/440/110
v 0 1.375 0
v 0 1.65625 0
v 0 1.65625 1
v 0 1.375 1
vt 0 1
vt 0 0
vt 0.25 0
vt 0.25 1
vn 1 0 0
f 441/441/111 442/442/111 443/443/111
f 441/441/111 443/443/111 444/444/111
v -0.8125 1.375 0
v -0.8125 1.375 1
v -0.8125 1.65625 1
v -0.8125 1.65625 0
vt 0 1
vt 0 0
vt 0.25 0
vt 0.25 1
vn -1 0 0
f 445/445/112 446/446/112 447/447/112
f 445/445/112 447/447/112 448/448/112
v -0.8125 1.375 0
v -0.8125 1.65625 0
v 0 1.65625 0
v 0 1.375 0
vt 0 1
vt 0 0
vt 0.25 0
vt 0.25 1
vn 0 0 -1
f 449/449/113 450/450/113 451/451/113
f 449/449/113 451/451/113 452/452/113
v -0.8125 1.375 1
v 0 1.375 1
v 0 1.65625 1
v -0.8125 1.65625 1
vt 0 1
vt 0 0
vt 0.25 0
vt 0.25 1
vn 0 0 1
f 453/453/114 454/454/114 455/455/114
f 453/453/114 455/455/114 456/456/114
o north_east_upper_white_rim_quarter_cross
v -1 1.375 0
v 0 1.375 0
v 0 1.375 0.8125
v -1 1.375 0.8125
vt 0 1
vt 0 0
vt 0.25 0
vt 0.25 1
vn 0 -1 0
f 457/457/115 458/458/115 459/459/115
f 457/457/115 459/459/115 460/460/115
v -1 1.65625 0
v -1 1.65625 0.8125
v 0 1.65625 0.8125
v 0 1.65625 0
vt 0 1
vt 0 0
vt 0.25 0
vt 0.25 1
vn 0 1 0
f 461/461/116 462/462/116 463/463/116
f 461/461/116 463/463/116 464/464/116
v 0 1.375 0
v 0 1.65625 0
v 0 1.65625 0.8125
v 0 1.375 0.8125
vt 0 1
vt 0 0
vt 0.25 0
vt 0.25 1
vn 1 0 0
f 465/465/117 466/466/117 467/467/117
f 465/465/117 467/467/117 468/468/117
v -1 1.375 0
v -1 1.375 0.8125
v -1 1.65625 0.8125
v -1 1.65625 0
vt 0 1
vt 0 0
vt 0.25 0
vt 0.25 1
vn -1 0 0
f 469/469/118 470/470/118 471/471/118
f 469/469/118 471/471/118 472/472/118
v -1 1.375 0
v -1 1.65625 0
v 0 1.65625 0
v 0 1.375 0
vt 0 1
vt 0 0
vt 0.25 0
vt 0.25 1
vn 0 0 -1
f 473/473/119 474/474/119 475/475/119
f 473/473/119 475/475/119 476/476/119
v -1 1.375 0.8125
v 0 1.375 0.8125
v 0 1.65625 0.8125
v -1 1.65625 0.8125
vt 0 1
vt 0 0
vt 0.25 0
vt 0.25 1
vn 0 0 1
f 477/477/120 478/478/120 479/479/120
f 477/477/120 479/479/120 480/480/120
o north_east_upper_red_plate_quarter_wide
v -0.625 1.65625 0
v 0 1.65625 0
v 0 1.65625 0.75
v -0.625 1.65625 0.75
vt 0.75 1
vt 0.75 0
vt 1 0
vt 1 1
vn 0 -1 0
f 481/481/121 482/482/121 483/483/121
f 481/481/121 483/483/121 484/484/121
v -0.625 1.75 0
v -0.625 1.75 0.75
v 0 1.75 0.75
v 0 1.75 0
vt 0.75 1
vt 0.75 0
vt 1 0
vt 1 1
vn 0 1 0
f 485/485/122 486/486/122 487/487/122
f 485/485/122 487/487/122 488/488/122
v 0 1.65625 0
v 0 1.75 0
v 0 1.75 0.75
v 0 1.65625 0.75
vt 0.75 1
vt 0.75 0
vt 1 0
vt 1 1
vn 1 0 0
f 489/489/123 490/490/123 491/491/123
f 489/489/123 491/491/123 492/492/123
v -0.625 1.65625 0
v -0.625 1.65625 0.75
v -0.625 1.75 0.75
v -0.625 1.75 0
vt 0.75 1
vt 0.75 0
vt 1 0
vt 1 1
vn -1 0 0
f 493/493/124 494/494/124 495/495/124
f 493/493/124 495/495/124 496/496/124
v -0.625 1.65625 0
v -0.625 1.75 0
v 0 1.75 0
v 0 1.65625 0
vt 0.75 1
vt 0.75 0
vt 1 0
vt 1 1
vn 0 0 -1
f 497/497/125 498/498/125 499/499/125
f 497/497/125 499/499/125 500/500/125
v -0.625 1.65625 0.75
v 0 1.65625 0.75
v 0 1.75 0.75
v -0.625 1.75 0.75
vt 0.75 1
vt 0.75 0
vt 1 0
vt 1 1
vn 0 0 1
f 501/501/126 502/502/126 503/503/126
f 501/501/126 503/503/126 504/504/126
o north_east_upper_red_plate_quarter_cross
v -0.75 1.65625 0
v 0 1.65625 0
v 0 1.65625 0.625
v -0.75 1.65625 0.625
vt 0.75 1
vt 0.75 0
vt 1 0
vt 1 1
vn 0 -1 0
f 505/505/127 506/506/127 507/507/127
f 505/505/127 507/507/127 508/508/127
v -0.75 1.75 0
v -0.75 1.75 0.625
v 0 1.75 0.625
v 0 1.75 0
vt 0.75 1
vt 0.75 0
vt 1 0
vt 1 1
vn 0 1 0
f 509/509/128 510/510/128 511/511/128
f 509/509/128 511/511/128 512/512/128
v 0 1.65625 0
v 0 1.75 0
v 0 1.75 0.625
v 0 1.65625 0.625
vt 0.75 1
vt 0.75 0
vt 1 0
vt 1 1
vn 1 0 0
f 513/513/129 514/514/129 515/515/129
f 513/513/129 515/515/129 516/516/129
v -0.75 1.65625 0
v -0.75 1.65625 0.625
v -0.75 1.75 0.625
v -0.75 1.75 0
vt 0.75 1
vt 0.75 0
vt 1 0
vt 1 1
vn -1 0 0
f 517/517/130 518/518/130 519/519/130
f 517/517/130 519/519/130 520/520/130
v -0.75 1.65625 0
v -0.75 1.75 0
v 0 1.75 0
v 0 1.65625 0
vt 0.75 1
vt 0.75 0
vt 1 0
vt 1 1
vn 0 0 -1
f 521/521/131 522/522/131 523/523/131
f 521/521/131 523/523/131 524/524/131
v -0.75 1.65625 0.625
v 0 1.65625 0.625
v 0 1.75 0.625
v -0.75 1.75 0.625
vt 0.75 1
vt 0.75 0
vt 1 0
vt 1 1
vn 0 0 1
f 525/525/132 526/526/132 527/527/132
f 525/525/132 527/527/132 528/528/132
o south_east_lower_base_quarter_wide
v -1 0 -0.8125
v 0 0 -0.8125
v 0 0 0
v -1 0 0
vt 0.5 1
vt 0.5 0
vt 0.75 0
vt 0.75 1
vn 0 -1 0
f 529/529/133 530/530/133 531/531/133
f 529/529/133 531/531/133 532/532/133
v -1 0.4375 -0.8125
v -1 0.4375 0
v 0 0.4375 0
v 0 0.4375 -0.8125
vt 0 1
vt 0 0
vt 0.25 0
vt 0.25 1
vn 0 1 0
f 533/533/134 534/534/134 535/535/134
f 533/533/134 535/535/134 536/536/134
v -1 0 0
v 0 0 0
v 0 0.4375 0
v -1 0.4375 0
vt 0 1
vt 0 0
vt 0.25 0
vt 0.25 1
vn 0 0 1
f 537/537/135 538/538/135 539/539/135
f 537/537/135 539/539/135 540/540/135
v -1 0 -0.8125
v -1 0.4375 -0.8125
v 0 0.4375 -0.8125
v 0 0 -0.8125
vt 0 1
vt 0 0
vt 0.25 0
vt 0.25 1
vn 0 0 -1
f 541/541/136 542/542/136 543/543/136
f 541/541/136 543/543/136 544/544/136
v 0 0 -0.8125
v 0 0.4375 -0.8125
v 0 0.4375 0
v 0 0 0
vt 0 1
vt 0 0
vt 0.25 0
vt 0.25 1
vn 1 0 0
f 545/545/137 546/546/137 547/547/137
f 545/545/137 547/547/137 548/548/137
v -1 0 -0.8125
v -1 0 0
v -1 0.4375 0
v -1 0.4375 -0.8125
vt 0 1
vt 0 0
vt 0.25 0
vt 0.25 1
vn -1 0 0
f 549/549/138 550/550/138 551/551/138
f 549/549/138 551/551/138 552/552/138
o south_east_lower_base_quarter_cross
v -0.8125 0 -1
v 0 0 -1
v 0 0 0
v -0.8125 0 0
vt 0.5 1
vt 0.5 0
vt 0.75 0
vt 0.75 1
vn 0 -1 0
f 553/553/139 554/554/139 555/555/139
f 553/553/139 555/555/139 556/556/139
v -0.8125 0.4375 -1
v -0.8125 0.4375 0
v 0 0.4375 0
v 0 0.4375 -1
vt 0 1
vt 0 0
vt 0.25 0
vt 0.25 1
vn 0 1 0
f 557/557/140 558/558/140 559/559/140
f 557/557/140 559/559/140 560/560/140
v -0.8125 0 0
v 0 0 0
v 0 0.4375 0
v -0.8125 0.4375 0
vt 0 1
vt 0 0
vt 0.25 0
vt 0.25 1
vn 0 0 1
f 561/561/141 562/562/141 563/563/141
f 561/561/141 563/563/141 564/564/141
v -0.8125 0 -1
v -0.8125 0.4375 -1
v 0 0.4375 -1
v 0 0 -1
vt 0 1
vt 0 0
vt 0.25 0
vt 0.25 1
vn 0 0 -1
f 565/565/142 566/566/142 567/567/142
f 565/565/142 567/567/142 568/568/142
v 0 0 -1
v 0 0.4375 -1
v 0 0.4375 0
v 0 0 0
vt 0 1
vt 0 0
vt 0.25 0
vt 0.25 1
vn 1 0 0
f 569/569/143 570/570/143 571/571/143
f 569/569/143 571/571/143 572/572/143
v -0.8125 0 -1
v -0.8125 0 0
v -0.8125 0.4375 0
v -0.8125 0.4375 -1
vt 0 1
vt 0 0
vt 0.25 0
vt 0.25 1
vn -1 0 0
f 573/573/144 574/574/144 575/575/144
f 573/573/144 575/575/144 576/576/144
o south_east_lower_outer_support
v -1 0 -1
v -0.75 0 -1
v -0.75 0 -0.75
v -1 0 -0.75
vt 0.5 1
vt 0.5 0
vt 0.75 0
vt 0.75 1
vn 0 -1 0
f 577/577/145 578/578/145 579/579/145
f 577/577/145 579/579/145 580/580/145
v -1 0.375 -1
v -1 0.375 -0.75
v -0.75 0.375 -0.75
v -0.75 0.375 -1
vt 0 1
vt 0 0
vt 0.25 0
vt 0.25 1
vn 0 1 0
f 581/581/146 582/582/146 583/583/146
f 581/581/146 583/583/146 584/584/146
v -1 0 -0.75
v -0.75 0 -0.75
v -0.75 0.375 -0.75
v -1 0.375 -0.75
vt 0 1
vt 0 0
vt 0.25 0
vt 0.25 1
vn 0 0 1
f 585/585/147 586/586/147 587/587/147
f 585/585/147 587/587/147 588/588/147
v -1 0 -1
v -1 0.375 -1
v -0.75 0.375 -1
v -0.75 0 -1
vt 0 1
vt 0 0
vt 0.25 0
vt 0.25 1
vn 0 0 -1
f 589/589/148 590/590/148 591/591/148
f 589/589/148 591/591/148 592/592/148
v -0.75 0 -1
v -0.75 0.375 -1
v -0.75 0.375 -0.75
v -0.75 0 -0.75
vt 0 1
vt 0 0
vt 0.25 0
vt 0.25 1
vn 1 0 0
f 593/593/149 594/594/149 595/595/149
f 593/593/149 595/595/149 596/596/149
v -1 0 -1
v -1 0 -0.75
v -1 0.375 -0.75
v -1 0.375 -1
vt 0 1
vt 0 0
vt 0.25 0
vt 0.25 1
vn -1 0 0
f 597/597/150 598/598/150 599/599/150
f 597/597/150 599/599/150 600/600/150
o south_east_lower_blue_cylinder_lower_wide
v -0.9375 0.4375 -0.75
v 0 0.4375 -0.75
v 0 0.4375 0
v -0.9375 0.4375 0
vt 0.25 1
vt 0.25 0
vt 0.5 0
vt 0.5 1
vn 0 -1 0
f 601/601/151 602/602/151 603/603/151
f 601/601/151 603/603/151 604/604/151
v -0.9375 1 -0.75
v -0.9375 1 0
v 0 1 0
v 0 1 -0.75
vt 0.25 1
vt 0.25 0
vt 0.5 0
vt 0.5 1
vn 0 1 0
f 605/605/152 606/606/152 607/607/152
f 605/605/152 607/607/152 608/608/152
v -0.9375 0.4375 0
v 0 0.4375 0
v 0 1 0
v -0.9375 1 0
vt 0.25 1
vt 0.25 0
vt 0.5 0
vt 0.5 1
vn 0 0 1
f 609/609/153 610/610/153 611/611/153
f 609/609/153 611/611/153 612/612/153
v -0.9375 0.4375 -0.75
v -0.9375 1 -0.75
v 0 1 -0.75
v 0 0.4375 -0.75
vt 0.25 1
vt 0.25 0
vt 0.5 0
vt 0.5 1
vn 0 0 -1
f 613/613/154 614/614/154 615/615/154
f 613/613/154 615/615/154 616/616/154
v 0 0.4375 -0.75
v 0 1 -0.75
v 0 1 0
v 0 0.4375 0
vt 0.25 1
vt 0.25 0
vt 0.5 0
vt 0.5 1
vn 1 0 0
f 617/617/155 618/618/155 619/619/155
f 617/617/155 619/619/155 620/620/155
v -0.9375 0.4375 -0.75
v -0.9375 0.4375 0
v -0.9375 1 0
v -0.9375 1 -0.75
vt 0.25 1
vt 0.25 0
vt 0.5 0
vt 0.5 1
vn -1 0 0
f 621/621/156 622/622/156 623/623/156
f 621/621/156 623/623/156 624/624/156
o south_east_lower_blue_cylinder_lower_cross
v -0.75 0.4375 -0.9375
v 0 0.4375 -0.9375
v 0 0.4375 0
v -0.75 0.4375 0
vt 0.25 1
vt 0.25 0
vt 0.5 0
vt 0.5 1
vn 0 -1 0
f 625/625/157 626/626/157 627/627/157
f 625/625/157 627/627/157 628/628/157
v -0.75 1 -0.9375
v -0.75 1 0
v 0 1 0
v 0 1 -0.9375
vt 0.25 1
vt 0.25 0
vt 0.5 0
vt 0.5 1
vn 0 1 0
f 629/629/158 630/630/158 631/631/158
f 629/629/158 631/631/158 632/632/158
v -0.75 0.4375 0
v 0 0.4375 0
v 0 1 0
v -0.75 1 0
vt 0.25 1
vt 0.25 0
vt 0.5 0
vt 0.5 1
vn 0 0 1
f 633/633/159 634/634/159 635/635/159
f 633/633/159 635/635/159 636/636/159
v -0.75 0.4375 -0.9375
v -0.75 1 -0.9375
v 0 1 -0.9375
v 0 0.4375 -0.9375
vt 0.25 1
vt 0.25 0
vt 0.5 0
vt 0.5 1
vn 0 0 -1
f 637/637/160 638/638/160 639/639/160
f 637/637/160 639/639/160 640/640/160
v 0 0.4375 -0.9375
v 0 1 -0.9375
v 0 1 0
v 0 0.4375 0
vt 0.25 1
vt 0.25 0
vt 0.5 0
vt 0.5 1
vn 1 0 0
f 641/641/161 642/642/161 643/643/161
f 641/641/161 643/643/161 644/644/161
v -0.75 0.4375 -0.9375
v -0.75 0.4375 0
v -0.75 1 0
v -0.75 1 -0.9375
vt 0.25 1
vt 0.25 0
vt 0.5 0
vt 0.5 1
vn -1 0 0
f 645/645/162 646/646/162 647/647/162
f 645/645/162 647/647/162 648/648/162
o south_east_upper_blue_cylinder_upper_wide
v -0.9375 1 -0.75
v 0 1 -0.75
v 0 1 0
v -0.9375 1 0
vt 0.25 1
vt 0.25 0
vt 0.5 0
vt 0.5 1
vn 0 -1 0
f 649/649/163 650/650/163 651/651/163
f 649/649/163 651/651/163 652/652/163
v -0.9375 1.375 -0.75
v -0.9375 1.375 0
v 0 1.375 0
v 0 1.375 -0.75
vt 0.25 1
vt 0.25 0
vt 0.5 0
vt 0.5 1
vn 0 1 0
f 653/653/164 654/654/164 655/655/164
f 653/653/164 655/655/164 656/656/164
v -0.9375 1 0
v 0 1 0
v 0 1.375 0
v -0.9375 1.375 0
vt 0.25 1
vt 0.25 0
vt 0.5 0
vt 0.5 1
vn 0 0 1
f 657/657/165 658/658/165 659/659/165
f 657/657/165 659/659/165 660/660/165
v -0.9375 1 -0.75
v -0.9375 1.375 -0.75
v 0 1.375 -0.75
v 0 1 -0.75
vt 0.25 1
vt 0.25 0
vt 0.5 0
vt 0.5 1
vn 0 0 -1
f 661/661/166 662/662/166 663/663/166
f 661/661/166 663/663/166 664/664/166
v 0 1 -0.75
v 0 1.375 -0.75
v 0 1.375 0
v 0 1 0
vt 0.25 1
vt 0.25 0
vt 0.5 0
vt 0.5 1
vn 1 0 0
f 665/665/167 666/666/167 667/667/167
f 665/665/167 667/667/167 668/668/167
v -0.9375 1 -0.75
v -0.9375 1 0
v -0.9375 1.375 0
v -0.9375 1.375 -0.75
vt 0.25 1
vt 0.25 0
vt 0.5 0
vt 0.5 1
vn -1 0 0
f 669/669/168 670/670/168 671/671/168
f 669/669/168 671/671/168 672/672/168
o south_east_upper_blue_cylinder_upper_cross
v -0.75 1 -0.9375
v 0 1 -0.9375
v 0 1 0
v -0.75 1 0
vt 0.25 1
vt 0.25 0
vt 0.5 0
vt 0.5 1
vn 0 -1 0
f 673/673/169 674/674/169 675/675/169
f 673/673/169 675/675/169 676/676/169
v -0.75 1.375 -0.9375
v -0.75 1.375 0
v 0 1.375 0
v 0 1.375 -0.9375
vt 0.25 1
vt 0.25 0
vt 0.5 0
vt 0.5 1
vn 0 1 0
f 677/677/170 678/678/170 679/679/170
f 677/677/170 679/679/170 680/680/170
v -0.75 1 0
v 0 1 0
v 0 1.375 0
v -0.75 1.375 0
vt 0.25 1
vt 0.25 0
vt 0.5 0
vt 0.5 1
vn 0 0 1
f 681/681/171 682/682/171 683/683/171
f 681/681/171 683/683/171 684/684/171
v -0.75 1 -0.9375
v -0.75 1.375 -0.9375
v 0 1.375 -0.9375
v 0 1 -0.9375
vt 0.25 1
vt 0.25 0
vt 0.5 0
vt 0.5 1
vn 0 0 -1
f 685/685/172 686/686/172 687/687/172
f 685/685/172 687/687/172 688/688/172
v 0 1 -0.9375
v 0 1.375 -0.9375
v 0 1.375 0
v 0 1 0
vt 0.25 1
vt 0.25 0
vt 0.5 0
vt 0.5 1
vn 1 0 0
f 689/689/173 690/690/173 691/691/173
f 689/689/173 691/691/173 692/692/173
v -0.75 1 -0.9375
v -0.75 1 0
v -0.75 1.375 0
v -0.75 1.375 -0.9375
vt 0.25 1
vt 0.25 0
vt 0.5 0
vt 0.5 1
vn -1 0 0
f 693/693/174 694/694/174 695/695/174
f 693/693/174 695/695/174 696/696/174
o south_east_upper_white_rim_quarter_wide
v -1 1.375 -0.8125
v 0 1.375 -0.8125
v 0 1.375 0
v -1 1.375 0
vt 0 1
vt 0 0
vt 0.25 0
vt 0.25 1
vn 0 -1 0
f 697/697/175 698/698/175 699/699/175
f 697/697/175 699/699/175 700/700/175
v -1 1.65625 -0.8125
v -1 1.65625 0
v 0 1.65625 0
v 0 1.65625 -0.8125
vt 0 1
vt 0 0
vt 0.25 0
vt 0.25 1
vn 0 1 0
f 701/701/176 702/702/176 703/703/176
f 701/701/176 703/703/176 704/704/176
v -1 1.375 0
v 0 1.375 0
v 0 1.65625 0
v -1 1.65625 0
vt 0 1
vt 0 0
vt 0.25 0
vt 0.25 1
vn 0 0 1
f 705/705/177 706/706/177 707/707/177
f 705/705/177 707/707/177 708/708/177
v -1 1.375 -0.8125
v -1 1.65625 -0.8125
v 0 1.65625 -0.8125
v 0 1.375 -0.8125
vt 0 1
vt 0 0
vt 0.25 0
vt 0.25 1
vn 0 0 -1
f 709/709/178 710/710/178 711/711/178
f 709/709/178 711/711/178 712/712/178
v 0 1.375 -0.8125
v 0 1.65625 -0.8125
v 0 1.65625 0
v 0 1.375 0
vt 0 1
vt 0 0
vt 0.25 0
vt 0.25 1
vn 1 0 0
f 713/713/179 714/714/179 715/715/179
f 713/713/179 715/715/179 716/716/179
v -1 1.375 -0.8125
v -1 1.375 0
v -1 1.65625 0
v -1 1.65625 -0.8125
vt 0 1
vt 0 0
vt 0.25 0
vt 0.25 1
vn -1 0 0
f 717/717/180 718/718/180 719/719/180
f 717/717/180 719/719/180 720/720/180
o south_east_upper_white_rim_quarter_cross
v -0.8125 1.375 -1
v 0 1.375 -1
v 0 1.375 0
v -0.8125 1.375 0
vt 0 1
vt 0 0
vt 0.25 0
vt 0.25 1
vn 0 -1 0
f 721/721/181 722/722/181 723/723/181
f 721/721/181 723/723/181 724/724/181
v -0.8125 1.65625 -1
v -0.8125 1.65625 0
v 0 1.65625 0
v 0 1.65625 -1
vt 0 1
vt 0 0
vt 0.25 0
vt 0.25 1
vn 0 1 0
f 725/725/182 726/726/182 727/727/182
f 725/725/182 727/727/182 728/728/182
v -0.8125 1.375 0
v 0 1.375 0
v 0 1.65625 0
v -0.8125 1.65625 0
vt 0 1
vt 0 0
vt 0.25 0
vt 0.25 1
vn 0 0 1
f 729/729/183 730/730/183 731/731/183
f 729/729/183 731/731/183 732/732/183
v -0.8125 1.375 -1
v -0.8125 1.65625 -1
v 0 1.65625 -1
v 0 1.375 -1
vt 0 1
vt 0 0
vt 0.25 0
vt 0.25 1
vn 0 0 -1
f 733/733/184 734/734/184 735/735/184
f 733/733/184 735/735/184 736/736/184
v 0 1.375 -1
v 0 1.65625 -1
v 0 1.65625 0
v 0 1.375 0
vt 0 1
vt 0 0
vt 0.25 0
vt 0.25 1
vn 1 0 0
f 737/737/185 738/738/185 739/739/185
f 737/737/185 739/739/185 740/740/185
v -0.8125 1.375 -1
v -0.8125 1.375 0
v -0.8125 1.65625 0
v -0.8125 1.65625 -1
vt 0 1
vt 0 0
vt 0.25 0
vt 0.25 1
vn -1 0 0
f 741/741/186 742/742/186 743/743/186
f 741/741/186 743/743/186 744/744/186
o south_east_upper_red_plate_quarter_wide
v -0.75 1.65625 -0.625
v 0 1.65625 -0.625
v 0 1.65625 0
v -0.75 1.65625 0
vt 0.75 1
vt 0.75 0
vt 1 0
vt 1 1
vn 0 -1 0
f 745/745/187 746/746/187 747/747/187
f 745/745/187 747/747/187 748/748/187
v -0.75 1.75 -0.625
v -0.75 1.75 0
v 0 1.75 0
v 0 1.75 -0.625
vt 0.75 1
vt 0.75 0
vt 1 0
vt 1 1
vn 0 1 0
f 749/749/188 750/750/188 751/751/188
f 749/749/188 751/751/188 752/752/188
v -0.75 1.65625 0
v 0 1.65625 0
v 0 1.75 0
v -0.75 1.75 0
vt 0.75 1
vt 0.75 0
vt 1 0
vt 1 1
vn 0 0 1
f 753/753/189 754/754/189 755/755/189
f 753/753/189 755/755/189 756/756/189
v -0.75 1.65625 -0.625
v -0.75 1.75 -0.625
v 0 1.75 -0.625
v 0 1.65625 -0.625
vt 0.75 1
vt 0.75 0
vt 1 0
vt 1 1
vn 0 0 -1
f 757/757/190 758/758/190 759/759/190
f 757/757/190 759/759/190 760/760/190
v 0 1.65625 -0.625
v 0 1.75 -0.625
v 0 1.75 0
v 0 1.65625 0
vt 0.75 1
vt 0.75 0
vt 1 0
vt 1 1
vn 1 0 0
f 761/761/191 762/762/191 763/763/191
f 761/761/191 763/763/191 764/764/191
v -0.75 1.65625 -0.625
v -0.75 1.65625 0
v -0.75 1.75 0
v -0.75 1.75 -0.625
vt 0.75 1
vt 0.75 0
vt 1 0
vt 1 1
vn -1 0 0
f 765/765/192 766/766/192 767/767/192
f 765/765/192 767/767/192 768/768/192
o south_east_upper_red_plate_quarter_cross
v -0.625 1.65625 -0.75
v 0 1.65625 -0.75
v 0 1.65625 0
v -0.625 1.65625 0
vt 0.75 1
vt 0.75 0
vt 1 0
vt 1 1
vn 0 -1 0
f 769/769/193 770/770/193 771/771/193
f 769/769/193 771/771/193 772/772/193
v -0.625 1.75 -0.75
v -0.625 1.75 0
v 0 1.75 0
v 0 1.75 -0.75
vt 0.75 1
vt 0.75 0
vt 1 0
vt 1 1
vn 0 1 0
f 773/773/194 774/774/194 775/775/194
f 773/773/194 775/775/194 776/776/194
v -0.625 1.65625 0
v 0 1.65625 0
v 0 1.75 0
v -0.625 1.75 0
vt 0.75 1
vt 0.75 0
vt 1 0
vt 1 1
vn 0 0 1
f 777/777/195 778/778/195 779/779/195
f 777/777/195 779/779/195 780/780/195
v -0.625 1.65625 -0.75
v -0.625 1.75 -0.75
v 0 1.75 -0.75
v 0 1.65625 -0.75
vt 0.75 1
vt 0.75 0
vt 1 0
vt 1 1
vn 0 0 -1
f 781/781/196 782/782/196 783/783/196
f 781/781/196 783/783/196 784/784/196
v 0 1.65625 -0.75
v 0 1.75 -0.75
v 0 1.75 0
v 0 1.65625 0
vt 0.75 1
vt 0.75 0
vt 1 0
vt 1 1
vn 1 0 0
f 785/785/197 786/786/197 787/787/197
f 785/785/197 787/787/197 788/788/197
v -0.625 1.65625 -0.75
v -0.625 1.65625 0
v -0.625 1.75 0
v -0.625 1.75 -0.75
vt 0.75 1
vt 0.75 0
vt 1 0
vt 1 1
vn -1 0 0
f 789/789/198 790/790/198 791/791/198
f 789/789/198 791/791/198 792/792/198
o south_west_lower_base_quarter_wide
v 0 0 -1
v 0.8125 0 -1
v 0.8125 0 0
v 0 0 0
vt 0.5 1
vt 0.5 0
vt 0.75 0
vt 0.75 1
vn 0 -1 0
f 793/793/199 794/794/199 795/795/199
f 793/793/199 795/795/199 796/796/199
v 0 0.4375 -1
v 0 0.4375 0
v 0.8125 0.4375 0
v 0.8125 0.4375 -1
vt 0 1
vt 0 0
vt 0.25 0
vt 0.25 1
vn 0 1 0
f 797/797/200 798/798/200 799/799/200
f 797/797/200 799/799/200 800/800/200
v 0 0 -1
v 0 0 0
v 0 0.4375 0
v 0 0.4375 -1
vt 0 1
vt 0 0
vt 0.25 0
vt 0.25 1
vn -1 0 0
f 801/801/201 802/802/201 803/803/201
f 801/801/201 803/803/201 804/804/201
v 0.8125 0 -1
v 0.8125 0.4375 -1
v 0.8125 0.4375 0
v 0.8125 0 0
vt 0 1
vt 0 0
vt 0.25 0
vt 0.25 1
vn 1 0 0
f 805/805/202 806/806/202 807/807/202
f 805/805/202 807/807/202 808/808/202
v 0 0 0
v 0.8125 0 0
v 0.8125 0.4375 0
v 0 0.4375 0
vt 0 1
vt 0 0
vt 0.25 0
vt 0.25 1
vn 0 0 1
f 809/809/203 810/810/203 811/811/203
f 809/809/203 811/811/203 812/812/203
v 0 0 -1
v 0 0.4375 -1
v 0.8125 0.4375 -1
v 0.8125 0 -1
vt 0 1
vt 0 0
vt 0.25 0
vt 0.25 1
vn 0 0 -1
f 813/813/204 814/814/204 815/815/204
f 813/813/204 815/815/204 816/816/204
o south_west_lower_base_quarter_cross
v 0 0 -0.8125
v 1 0 -0.8125
v 1 0 0
v 0 0 0
vt 0.5 1
vt 0.5 0
vt 0.75 0
vt 0.75 1
vn 0 -1 0
f 817/817/205 818/818/205 819/819/205
f 817/817/205 819/819/205 820/820/205
v 0 0.4375 -0.8125
v 0 0.4375 0
v 1 0.4375 0
v 1 0.4375 -0.8125
vt 0 1
vt 0 0
vt 0.25 0
vt 0.25 1
vn 0 1 0
f 821/821/206 822/822/206 823/823/206
f 821/821/206 823/823/206 824/824/206
v 0 0 -0.8125
v 0 0 0
v 0 0.4375 0
v 0 0.4375 -0.8125
vt 0 1
vt 0 0
vt 0.25 0
vt 0.25 1
vn -1 0 0
f 825/825/207 826/826/207 827/827/207
f 825/825/207 827/827/207 828/828/207
v 1 0 -0.8125
v 1 0.4375 -0.8125
v 1 0.4375 0
v 1 0 0
vt 0 1
vt 0 0
vt 0.25 0
vt 0.25 1
vn 1 0 0
f 829/829/208 830/830/208 831/831/208
f 829/829/208 831/831/208 832/832/208
v 0 0 0
v 1 0 0
v 1 0.4375 0
v 0 0.4375 0
vt 0 1
vt 0 0
vt 0.25 0
vt 0.25 1
vn 0 0 1
f 833/833/209 834/834/209 835/835/209
f 833/833/209 835/835/209 836/836/209
v 0 0 -0.8125
v 0 0.4375 -0.8125
v 1 0.4375 -0.8125
v 1 0 -0.8125
vt 0 1
vt 0 0
vt 0.25 0
vt 0.25 1
vn 0 0 -1
f 837/837/210 838/838/210 839/839/210
f 837/837/210 839/839/210 840/840/210
o south_west_lower_outer_support
v 0.75 0 -1
v 1 0 -1
v 1 0 -0.75
v 0.75 0 -0.75
vt 0.5 1
vt 0.5 0
vt 0.75 0
vt 0.75 1
vn 0 -1 0
f 841/841/211 842/842/211 843/843/211
f 841/841/211 843/843/211 844/844/211
v 0.75 0.375 -1
v 0.75 0.375 -0.75
v 1 0.375 -0.75
v 1 0.375 -1
vt 0 1
vt 0 0
vt 0.25 0
vt 0.25 1
vn 0 1 0
f 845/845/212 846/846/212 847/847/212
f 845/845/212 847/847/212 848/848/212
v 0.75 0 -1
v 0.75 0 -0.75
v 0.75 0.375 -0.75
v 0.75 0.375 -1
vt 0 1
vt 0 0
vt 0.25 0
vt 0.25 1
vn -1 0 0
f 849/849/213 850/850/213 851/851/213
f 849/849/213 851/851/213 852/852/213
v 1 0 -1
v 1 0.375 -1
v 1 0.375 -0.75
v 1 0 -0.75
vt 0 1
vt 0 0
vt 0.25 0
vt 0.25 1
vn 1 0 0
f 853/853/214 854/854/214 855/855/214
f 853/853/214 855/855/214 856/856/214
v 0.75 0 -0.75
v 1 0 -0.75
v 1 0.375 -0.75
v 0.75 0.375 -0.75
vt 0 1
vt 0 0
vt 0.25 0
vt 0.25 1
vn 0 0 1
f 857/857/215 858/858/215 859/859/215
f 857/857/215 859/859/215 860/860/215
v 0.75 0 -1
v 0.75 0.375 -1
v 1 0.375 -1
v 1 0 -1
vt 0 1
vt 0 0
vt 0.25 0
vt 0.25 1
vn 0 0 -1
f 861/861/216 862/862/216 863/863/216
f 861/861/216 863/863/216 864/864/216
o south_west_lower_blue_cylinder_lower_wide
v 0 0.4375 -0.9375
v 0.75 0.4375 -0.9375
v 0.75 0.4375 0
v 0 0.4375 0
vt 0.25 1
vt 0.25 0
vt 0.5 0
vt 0.5 1
vn 0 -1 0
f 865/865/217 866/866/217 867/867/217
f 865/865/217 867/867/217 868/868/217
v 0 1 -0.9375
v 0 1 0
v 0.75 1 0
v 0.75 1 -0.9375
vt 0.25 1
vt 0.25 0
vt 0.5 0
vt 0.5 1
vn 0 1 0
f 869/869/218 870/870/218 871/871/218
f 869/869/218 871/871/218 872/872/218
v 0 0.4375 -0.9375
v 0 0.4375 0
v 0 1 0
v 0 1 -0.9375
vt 0.25 1
vt 0.25 0
vt 0.5 0
vt 0.5 1
vn -1 0 0
f 873/873/219 874/874/219 875/875/219
f 873/873/219 875/875/219 876/876/219
v 0.75 0.4375 -0.9375
v 0.75 1 -0.9375
v 0.75 1 0
v 0.75 0.4375 0
vt 0.25 1
vt 0.25 0
vt 0.5 0
vt 0.5 1
vn 1 0 0
f 877/877/220 878/878/220 879/879/220
f 877/877/220 879/879/220 880/880/220
v 0 0.4375 0
v 0.75 0.4375 0
v 0.75 1 0
v 0 1 0
vt 0.25 1
vt 0.25 0
vt 0.5 0
vt 0.5 1
vn 0 0 1
f 881/881/221 882/882/221 883/883/221
f 881/881/221 883/883/221 884/884/221
v 0 0.4375 -0.9375
v 0 1 -0.9375
v 0.75 1 -0.9375
v 0.75 0.4375 -0.9375
vt 0.25 1
vt 0.25 0
vt 0.5 0
vt 0.5 1
vn 0 0 -1
f 885/885/222 886/886/222 887/887/222
f 885/885/222 887/887/222 888/888/222
o south_west_lower_blue_cylinder_lower_cross
v 0 0.4375 -0.75
v 0.9375 0.4375 -0.75
v 0.9375 0.4375 0
v 0 0.4375 0
vt 0.25 1
vt 0.25 0
vt 0.5 0
vt 0.5 1
vn 0 -1 0
f 889/889/223 890/890/223 891/891/223
f 889/889/223 891/891/223 892/892/223
v 0 1 -0.75
v 0 1 0
v 0.9375 1 0
v 0.9375 1 -0.75
vt 0.25 1
vt 0.25 0
vt 0.5 0
vt 0.5 1
vn 0 1 0
f 893/893/224 894/894/224 895/895/224
f 893/893/224 895/895/224 896/896/224
v 0 0.4375 -0.75
v 0 0.4375 0
v 0 1 0
v 0 1 -0.75
vt 0.25 1
vt 0.25 0
vt 0.5 0
vt 0.5 1
vn -1 0 0
f 897/897/225 898/898/225 899/899/225
f 897/897/225 899/899/225 900/900/225
v 0.9375 0.4375 -0.75
v 0.9375 1 -0.75
v 0.9375 1 0
v 0.9375 0.4375 0
vt 0.25 1
vt 0.25 0
vt 0.5 0
vt 0.5 1
vn 1 0 0
f 901/901/226 902/902/226 903/903/226
f 901/901/226 903/903/226 904/904/226
v 0 0.4375 0
v 0.9375 0.4375 0
v 0.9375 1 0
v 0 1 0
vt 0.25 1
vt 0.25 0
vt 0.5 0
vt 0.5 1
vn 0 0 1
f 905/905/227 906/906/227 907/907/227
f 905/905/227 907/907/227 908/908/227
v 0 0.4375 -0.75
v 0 1 -0.75
v 0.9375 1 -0.75
v 0.9375 0.4375 -0.75
vt 0.25 1
vt 0.25 0
vt 0.5 0
vt 0.5 1
vn 0 0 -1
f 909/909/228 910/910/228 911/911/228
f 909/909/228 911/911/228 912/912/228
o south_west_upper_blue_cylinder_upper_wide
v 0 1 -0.9375
v 0.75 1 -0.9375
v 0.75 1 0
v 0 1 0
vt 0.25 1
vt 0.25 0
vt 0.5 0
vt 0.5 1
vn 0 -1 0
f 913/913/229 914/914/229 915/915/229
f 913/913/229 915/915/229 916/916/229
v 0 1.375 -0.9375
v 0 1.375 0
v 0.75 1.375 0
v 0.75 1.375 -0.9375
vt 0.25 1
vt 0.25 0
vt 0.5 0
vt 0.5 1
vn 0 1 0
f 917/917/230 918/918/230 919/919/230
f 917/917/230 919/919/230 920/920/230
v 0 1 -0.9375
v 0 1 0
v 0 1.375 0
v 0 1.375 -0.9375
vt 0.25 1
vt 0.25 0
vt 0.5 0
vt 0.5 1
vn -1 0 0
f 921/921/231 922/922/231 923/923/231
f 921/921/231 923/923/231 924/924/231
v 0.75 1 -0.9375
v 0.75 1.375 -0.9375
v 0.75 1.375 0
v 0.75 1 0
vt 0.25 1
vt 0.25 0
vt 0.5 0
vt 0.5 1
vn 1 0 0
f 925/925/232 926/926/232 927/927/232
f 925/925/232 927/927/232 928/928/232
v 0 1 0
v 0.75 1 0
v 0.75 1.375 0
v 0 1.375 0
vt 0.25 1
vt 0.25 0
vt 0.5 0
vt 0.5 1
vn 0 0 1
f 929/929/233 930/930/233 931/931/233
f 929/929/233 931/931/233 932/932/233
v 0 1 -0.9375
v 0 1.375 -0.9375
v 0.75 1.375 -0.9375
v 0.75 1 -0.9375
vt 0.25 1
vt 0.25 0
vt 0.5 0
vt 0.5 1
vn 0 0 -1
f 933/933/234 934/934/234 935/935/234
f 933/933/234 935/935/234 936/936/234
o south_west_upper_blue_cylinder_upper_cross
v 0 1 -0.75
v 0.9375 1 -0.75
v 0.9375 1 0
v 0 1 0
vt 0.25 1
vt 0.25 0
vt 0.5 0
vt 0.5 1
vn 0 -1 0
f 937/937/235 938/938/235 939/939/235
f 937/937/235 939/939/235 940/940/235
v 0 1.375 -0.75
v 0 1.375 0
v 0.9375 1.375 0
v 0.9375 1.375 -0.75
vt 0.25 1
vt 0.25 0
vt 0.5 0
vt 0.5 1
vn 0 1 0
f 941/941/236 942/942/236 943/943/236
f 941/941/236 943/943/236 944/944/236
v 0 1 -0.75
v 0 1 0
v 0 1.375 0
v 0 1.375 -0.75
vt 0.25 1
vt 0.25 0
vt 0.5 0
vt 0.5 1
vn -1 0 0
f 945/945/237 946/946/237 947/947/237
f 945/945/237 947/947/237 948/948/237
v 0.9375 1 -0.75
v 0.9375 1.375 -0.75
v 0.9375 1.375 0
v 0.9375 1 0
vt 0.25 1
vt 0.25 0
vt 0.5 0
vt 0.5 1
vn 1 0 0
f 949/949/238 950/950/238 951/951/238
f 949/949/238 951/951/238 952/952/238
v 0 1 0
v 0.9375 1 0
v 0.9375 1.375 0
v 0 1.375 0
vt 0.25 1
vt 0.25 0
vt 0.5 0
vt 0.5 1
vn 0 0 1
f 953/953/239 954/954/239 955/955/239
f 953/953/239 955/955/239 956/956/239
v 0 1 -0.75
v 0 1.375 -0.75
v 0.9375 1.375 -0.75
v 0.9375 1 -0.75
vt 0.25 1
vt 0.25 0
vt 0.5 0
vt 0.5 1
vn 0 0 -1
f 957/957/240 958/958/240 959/959/240
f 957/957/240 959/959/240 960/960/240
o south_west_upper_white_rim_quarter_wide
v 0 1.375 -1
v 0.8125 1.375 -1
v 0.8125 1.375 0
v 0 1.375 0
vt 0 1
vt 0 0
vt 0.25 0
vt 0.25 1
vn 0 -1 0
f 961/961/241 962/962/241 963/963/241
f 961/961/241 963/963/241 964/964/241
v 0 1.65625 -1
v 0 1.65625 0
v 0.8125 1.65625 0
v 0.8125 1.65625 -1
vt 0 1
vt 0 0
vt 0.25 0
vt 0.25 1
vn 0 1 0
f 965/965/242 966/966/242 967/967/242
f 965/965/242 967/967/242 968/968/242
v 0 1.375 -1
v 0 1.375 0
v 0 1.65625 0
v 0 1.65625 -1
vt 0 1
vt 0 0
vt 0.25 0
vt 0.25 1
vn -1 0 0
f 969/969/243 970/970/243 971/971/243
f 969/969/243 971/971/243 972/972/243
v 0.8125 1.375 -1
v 0.8125 1.65625 -1
v 0.8125 1.65625 0
v 0.8125 1.375 0
vt 0 1
vt 0 0
vt 0.25 0
vt 0.25 1
vn 1 0 0
f 973/973/244 974/974/244 975/975/244
f 973/973/244 975/975/244 976/976/244
v 0 1.375 0
v 0.8125 1.375 0
v 0.8125 1.65625 0
v 0 1.65625 0
vt 0 1
vt 0 0
vt 0.25 0
vt 0.25 1
vn 0 0 1
f 977/977/245 978/978/245 979/979/245
f 977/977/245 979/979/245 980/980/245
v 0 1.375 -1
v 0 1.65625 -1
v 0.8125 1.65625 -1
v 0.8125 1.375 -1
vt 0 1
vt 0 0
vt 0.25 0
vt 0.25 1
vn 0 0 -1
f 981/981/246 982/982/246 983/983/246
f 981/981/246 983/983/246 984/984/246
o south_west_upper_white_rim_quarter_cross
v 0 1.375 -0.8125
v 1 1.375 -0.8125
v 1 1.375 0
v 0 1.375 0
vt 0 1
vt 0 0
vt 0.25 0
vt 0.25 1
vn 0 -1 0
f 985/985/247 986/986/247 987/987/247
f 985/985/247 987/987/247 988/988/247
v 0 1.65625 -0.8125
v 0 1.65625 0
v 1 1.65625 0
v 1 1.65625 -0.8125
vt 0 1
vt 0 0
vt 0.25 0
vt 0.25 1
vn 0 1 0
f 989/989/248 990/990/248 991/991/248
f 989/989/248 991/991/248 992/992/248
v 0 1.375 -0.8125
v 0 1.375 0
v 0 1.65625 0
v 0 1.65625 -0.8125
vt 0 1
vt 0 0
vt 0.25 0
vt 0.25 1
vn -1 0 0
f 993/993/249 994/994/249 995/995/249
f 993/993/249 995/995/249 996/996/249
v 1 1.375 -0.8125
v 1 1.65625 -0.8125
v 1 1.65625 0
v 1 1.375 0
vt 0 1
vt 0 0
vt 0.25 0
vt 0.25 1
vn 1 0 0
f 997/997/250 998/998/250 999/999/250
f 997/997/250 999/999/250 1000/1000/250
v 0 1.375 0
v 1 1.375 0
v 1 1.65625 0
v 0 1.65625 0
vt 0 1
vt 0 0
vt 0.25 0
vt 0.25 1
vn 0 0 1
f 1001/1001/251 1002/1002/251 1003/1003/251
f 1001/1001/251 1003/1003/251 1004/1004/251
v 0 1.375 -0.8125
v 0 1.65625 -0.8125
v 1 1.65625 -0.8125
v 1 1.375 -0.8125
vt 0 1
vt 0 0
vt 0.25 0
vt 0.25 1
vn 0 0 -1
f 1005/1005/252 1006/1006/252 1007/1007/252
f 1005/1005/252 1007/1007/252 1008/1008/252
o south_west_upper_red_plate_quarter_wide
v 0 1.65625 -0.75
v 0.625 1.65625 -0.75
v 0.625 1.65625 0
v 0 1.65625 0
vt 0.75 1
vt 0.75 0
vt 1 0
vt 1 1
vn 0 -1 0
f 1009/1009/253 1010/1010/253 1011/1011/253
f 1009/1009/253 1011/1011/253 1012/1012/253
v 0 1.75 -0.75
v 0 1.75 0
v 0.625 1.75 0
v 0.625 1.75 -0.75
vt 0.75 1
vt 0.75 0
vt 1 0
vt 1 1
vn 0 1 0
f 1013/1013/254 1014/1014/254 1015/1015/254
f 1013/1013/254 1015/1015/254 1016/1016/254
v 0 1.65625 -0.75
v 0 1.65625 0
v 0 1.75 0
v 0 1.75 -0.75
vt 0.75 1
vt 0.75 0
vt 1 0
vt 1 1
vn -1 0 0
f 1017/1017/255 1018/1018/255 1019/1019/255
f 1017/1017/255 1019/1019/255 1020/1020/255
v 0.625 1.65625 -0.75
v 0.625 1.75 -0.75
v 0.625 1.75 0
v 0.625 1.65625 0
vt 0.75 1
vt 0.75 0
vt 1 0
vt 1 1
vn 1 0 0
f 1021/1021/256 1022/1022/256 1023/1023/256
f 1021/1021/256 1023/1023/256 1024/1024/256
v 0 1.65625 0
v 0.625 1.65625 0
v 0.625 1.75 0
v 0 1.75 0
vt 0.75 1
vt 0.75 0
vt 1 0
vt 1 1
vn 0 0 1
f 1025/1025/257 1026/1026/257 1027/1027/257
f 1025/1025/257 1027/1027/257 1028/1028/257
v 0 1.65625 -0.75
v 0 1.75 -0.75
v 0.625 1.75 -0.75
v 0.625 1.65625 -0.75
vt 0.75 1
vt 0.75 0
vt 1 0
vt 1 1
vn 0 0 -1
f 1029/1029/258 1030/1030/258 1031/1031/258
f 1029/1029/258 1031/1031/258 1032/1032/258
o south_west_upper_red_plate_quarter_cross
v 0 1.65625 -0.625
v 0.75 1.65625 -0.625
v 0.75 1.65625 0
v 0 1.65625 0
vt 0.75 1
vt 0.75 0
vt 1 0
vt 1 1
vn 0 -1 0
f 1033/1033/259 1034/1034/259 1035/1035/259
f 1033/1033/259 1035/1035/259 1036/1036/259
v 0 1.75 -0.625
v 0 1.75 0
v 0.75 1.75 0
v 0.75 1.75 -0.625
vt 0.75 1
vt 0.75 0
vt 1 0
vt 1 1
vn 0 1 0
f 1037/1037/260 1038/1038/260 1039/1039/260
f 1037/1037/260 1039/1039/260 1040/1040/260
v 0 1.65625 -0.625
v 0 1.65625 0
v 0 1.75 0
v 0 1.75 -0.625
vt 0.75 1
vt 0.75 0
vt 1 0
vt 1 1
vn -1 0 0
f 1041/1041/261 1042/1042/261 1043/1043/261
f 1041/1041/261 1043/1043/261 1044/1044/261
v 0.75 1.65625 -0.625
v 0.75 1.75 -0.625
v 0.75 1.75 0
v 0.75 1.65625 0
vt 0.75 1
vt 0.75 0
vt 1 0
vt 1 1
vn 1 0 0
f 1045/1045/262 1046/1046/262 1047/1047/262
f 1045/1045/262 1047/1047/262 1048/1048/262
v 0 1.65625 0
v 0.75 1.65625 0
v 0.75 1.75 0
v 0 1.75 0
vt 0.75 1
vt 0.75 0
vt 1 0
vt 1 1
vn 0 0 1
f 1049/1049/263 1050/1050/263 1051/1051/263
f 1049/1049/263 1051/1051/263 1052/1052/263
v 0 1.65625 -0.625
v 0 1.75 -0.625
v 0.75 1.75 -0.625
v 0.75 1.65625 -0.625
vt 0.75 1
vt 0.75 0
vt 1 0
vt 1 1
vn 0 0 -1
f 1053/1053/264 1054/1054/264 1055/1055/264
f 1053/1053/264 1055/1055/264 1056/1056/264
o connector_side_connector
v 0.8125 0.0625 0.3125
v 1 0.0625 0.3125
v 1 0.0625 0.6875
v 0.8125 0.0625 0.6875
vt 0.5 1
vt 0.5 0
vt 0.75 0
vt 0.75 1
vn 0 -1 0
f 1057/1057/265 1058/1058/265 1059/1059/265
f 1057/1057/265 1059/1059/265 1060/1060/265
v 0.8125 0.3125 0.3125
v 0.8125 0.3125 0.6875
v 1 0.3125 0.6875
v 1 0.3125 0.3125
vt 0 1
vt 0 0
vt 0.25 0
vt 0.25 1
vn 0 1 0
f 1061/1061/266 1062/1062/266 1063/1063/266
f 1061/1061/266 1063/1063/266 1064/1064/266
v 0.8125 0.0625 0.3125
v 0.8125 0.3125 0.3125
v 1 0.3125 0.3125
v 1 0.0625 0.3125
vt 0.5 1
vt 0.5 0
vt 0.75 0
vt 0.75 1
vn 0 0 -1
f 1065/1065/267 1066/1066/267 1067/1067/267
f 1065/1065/267 1067/1067/267 1068/1068/267
v 0.8125 0.0625 0.6875
v 1 0.0625 0.6875
v 1 0.3125 0.6875
v 0.8125 0.3125 0.6875
vt 0.5 1
vt 0.5 0
vt 0.75 0
vt 0.75 1
vn 0 0 1
f 1069/1069/268 1070/1070/268 1071/1071/268
f 1069/1069/268 1071/1071/268 1072/1072/268
v 0.8125 0.0625 0.3125
v 0.8125 0.0625 0.6875
v 0.8125 0.3125 0.6875
v 0.8125 0.3125 0.3125
vt 0 1
vt 0 0
vt 0.25 0
vt 0.25 1
vn -1 0 0
f 1073/1073/269 1074/1074/269 1075/1075/269
f 1073/1073/269 1075/1075/269 1076/1076/269
v 1 0.0625 0.3125
v 1 0.3125 0.3125
v 1 0.3125 0.6875
v 1 0.0625 0.6875
vt 0.5 1
vt 0.5 0
vt 0.75 0
vt 0.75 1
vn 1 0 0
f 1077/1077/270 1078/1078/270 1079/1079/270
f 1077/1077/270 1079/1079/270 1080/1080/270
